<?xml version="1.0" encoding="utf-8"?>
<!DOCTYPE svg PUBLIC "-//W3C//DTD SVG 20010904//EN" "http://www.w3.org/TR/2001/REC-SVG-20010904/DTD/svg10.dtd">
<svg version="1.0" xmlns="http://www.w3.org/2000/svg" width="1214px" height="1188px" viewBox="0 0 1214 1188" preserveAspectRatio="xMidYMid meet">
 <g fill="#ffffff">
  <path d="M575 1158.9 c-122.1 -9 -234.7 -55.4 -327.5 -135 -15.5 -13.3 -46.3 -44.2 -58.8 -59 -45.6 -54 -77.7 -108.8 -101.2 -172.4 -17.5 -47.5 -27.4 -92.5 -32.6 -148.5 -1.7 -17.5 -1.7 -78.2 -0.1 -96 8.8 -95.1 36.2 -177.5 84.5 -254 73.2 -115.9 185.3 -200.8 316.2 -239.5 52.9 -15.6 102.5 -22.5 162 -22.5 68.2 0 123.3 9 185.3 30.2 117.5 40.1 218 118.2 286.6 222.5 47.1 71.6 77.1 152.7 87.5 236.3 3.5 27.7 4.3 42.2 4.3 75 0 32.8 -0.8 47.3 -4.3 75 -26.4 211.8 -174.7 392.2 -377.9 460 -41.3 13.8 -78.1 21.7 -123.5 26.5 -17.9 1.9 -81.6 2.8 -100.5 1.4z m94 -30.4 c65.9 -7.3 122.8 -23.5 180.5 -51.5 53.6 -25.9 101.3 -59.9 144.5 -103 43.6 -43.4 75 -87.1 102.9 -143.1 43.9 -88 63 -191.1 53 -285.9 -11.4 -107.9 -53.2 -207.6 -121.5 -289.8 -101.9 -122.5 -253.5 -194.2 -410.9 -194.2 -101.8 0 -202.2 30 -290.5 86.8 l-6.5 4.2 3.8 0 c2.7 0 4.3 0.7 6 2.6 3.1 3.5 3.5 5.5 3.6 16.7 l0.1 9.7 6 0 c5.6 0 6.1 0.2 7 2.6 0.6 1.4 1 4.7 1 7.4 0 4.1 0.5 5.3 3.4 8.2 3.3 3.3 3.8 3.4 8.9 3 7.4 -0.6 8.1 0.8 7.2 12.9 -0.7 8.9 -0.7 8.9 1.6 8.9 3.4 0 12.5 4.5 13.2 6.5 0.4 0.9 0.7 4.3 0.7 7.5 0 5.3 -0.3 6.1 -2.8 7.8 -1.5 1.1 -3.4 3.2 -4.2 4.6 -1.1 2.1 -2.1 2.6 -5.2 2.6 l-3.8 0 0 -5.9 c0 -4.3 -0.5 -6.4 -1.7 -7.7 -1.7 -1.7 -1.8 -1.3 -2.3 8.9 -0.3 5.8 -1 11.1 -1.6 11.7 -0.6 0.6 -2.7 1 -4.5 0.8 -3.3 -0.3 -3.4 -0.5 -4.3 -6 l-0.9 -5.7 -4.6 -0.3 c-4.2 -0.3 -4.6 -0.5 -4.9 -3 -0.3 -2.6 -0.6 -2.8 -5.1 -2.8 -2.6 0 -5.2 -0.5 -5.9 -1.2 -0.7 -0.7 -1.2 -3.5 -1.2 -6.2 -0.1 -3.1 -1 -7.3 -2.5 -10.6 l-2.3 -5.5 -6.6 0.3 -6.6 0.4 0 -5.4 c0 -3 0.4 -5.8 0.9 -6.4 0.4 -0.5 1.6 -3.1 2.5 -5.9 1.6 -4.9 1.6 -5 -1 -10 -2.4 -4.7 -2.5 -5.6 -1.9 -13.8 0.7 -8.7 0.8 -8.8 3.6 -9.4 3.3 -0.6 3.4 -0.9 1.4 -4.3 -0.8 -1.4 -1.4 -4.2 -1.5 -6.2 l0 -3.8 -10.4 7.5 c-69 49.7 -126.2 116.6 -165.1 193 -47.2 92.6 -66.5 197.4 -54.9 298 13.6 118.9 65.4 228.4 148.8 314.3 91.9 94.7 213.2 151.4 346.6 162.1 17.1 1.4 70.8 0.6 88 -1.4z"/>
  <path d="M588 1100.3 c-3 -0.1 -8.3 -0.5 -11.7 -0.9 l-6.3 -0.6 0 -3.3 c0 -2.9 0.4 -3.4 2.9 -4 1.6 -0.3 3.5 -1.3 4.2 -2.1 1.1 -1.3 2.7 -21.9 2.8 -36.6 0.1 -5.6 0 -5.8 -2.5 -5.8 -3.8 0 -6.4 1.8 -8 5.6 -1.2 2.9 -1.9 3.4 -4.9 3.4 l-3.5 0 0 -7 c0 -5.4 -0.3 -7 -1.4 -7 -2.1 0 -4.4 2.6 -5 5.7 -1.6 8.5 -4.8 36.3 -4.3 37.7 0.4 0.9 1.8 2.1 3.2 2.6 2 0.8 2.5 1.6 2.5 4.5 0 3.5 0 3.5 -4.3 3.5 -4.3 0 -18.9 -1.6 -23.4 -2.6 -1.9 -0.3 -2.3 -1.1 -2.3 -3.9 0 -3.2 0.3 -3.5 2.8 -3.5 5.1 0 5.9 -2.1 8.7 -22.8 1.5 -10.6 2.4 -19.9 2.1 -20.7 -0.3 -0.9 -1.7 -2 -3.1 -2.5 -2 -0.8 -2.5 -1.6 -2.5 -4.5 0 -3.4 0.1 -3.5 4.1 -3.5 7.4 0 23.4 2.3 24.4 3.5 1.2 1.4 45 3.3 63.8 2.7 l12.7 -0.4 0 3.7 c0 2.8 -0.5 3.8 -2 4.2 -1.1 0.3 -2 0.8 -2 1.2 0 0.4 2.2 3.7 4.9 7.4 l4.8 6.7 4.1 -7.1 c4.1 -7 4.5 -8.9 1.6 -8.9 -1 0 -1.4 -1.2 -1.4 -4 l0 -4 5.8 0 c3.1 0 8.7 -0.3 12.5 -0.7 l6.7 -0.6 0 4 c0 3.5 -0.4 4.1 -3.5 5.6 -3.7 1.8 -4.8 3.4 -14.5 20.1 -6.2 10.8 -6.3 10.9 -5.6 16.9 0.7 7 1.8 8.7 5.7 8.7 2.7 0 2.9 0.3 2.9 3.8 l0 3.9 -9.7 0.6 c-5.4 0.4 -12.2 0.7 -15 0.7 l-5.3 0 0 -4 c0 -3.5 0.3 -4 2.3 -4 3.7 0 4.7 -1.9 4.7 -8.7 l0 -6.3 -10 -13.9 c-5.5 -7.7 -10.5 -14.3 -11 -14.6 -0.6 -0.4 -1 1.4 -1 4.4 l0 5.1 -3.9 0 c-3.5 0 -4 -0.3 -4.6 -2.9 -0.8 -3.9 -3.7 -6.3 -7.7 -6.4 l-3.3 -0.2 -0.8 14 c-0.4 7.7 -0.6 17.4 -0.5 21.5 l0.3 7.5 3.3 0.3 c3.1 0.3 3.2 0.5 3.2 4.8 0 4.3 0 4.4 -3.2 4.2 -1.8 -0.1 -5.8 -0.3 -8.8 -0.5z"/>
  <path d="M497.1 1088.8 c-1.8 -0.5 -4.5 -1.7 -5.9 -2.6 -1.5 -1 -4.1 -1.5 -6.8 -1.3 -4.2 0.2 -4.4 0.1 -4.4 -2.6 0.1 -1.5 1.1 -7.1 2.4 -12.3 l2.3 -9.5 3.5 -0.3 3.6 -0.3 0.7 5.6 c0.8 6.4 4 11 9.4 13.2 3.1 1.3 3.6 1.3 6 -0.5 4.5 -3.3 3.9 -4.8 -5.3 -13.8 -11.5 -11.3 -12.6 -13.1 -12.6 -22 0 -8.3 2.3 -12.7 8 -15.7 4.7 -2.5 18.4 -2 22.6 0.8 1.9 1.2 4.3 1.8 7.1 1.6 l4.3 -0.2 0 4.1 c0 2.2 -1 7.9 -2.1 12.5 l-2.1 8.5 -3.8 0 -3.8 0 -0.4 -5.5 c-0.5 -5.9 -2.8 -9.4 -8 -12.1 -2.5 -1.3 -3.1 -1.3 -5.3 0.2 -1.4 0.9 -2.5 2.1 -2.5 2.7 0 0.6 4.5 5.6 10 11.2 5.4 5.6 10.4 11.4 11 12.9 1.7 4.5 1.2 14.7 -0.8 18.6 -3.6 6.9 -16 10 -27.1 6.8z"/>
  <path d="M726.1 1085.8 c-5 -1.4 -11.3 -6 -14.3 -10.5 -4.2 -6.1 -5.8 -12.4 -5.8 -22.7 0 -8.4 0.3 -9.9 3.1 -15.5 3 -6.1 6.2 -9.2 12.9 -12.7 5.5 -2.9 23 -2.7 28.6 0.3 10.2 5.5 15.5 14.8 16.2 28.4 0.6 12.3 -1.4 18.5 -8.1 25.4 -4 4.1 -6.5 5.7 -10.6 6.9 -6 1.8 -16.7 2 -22 0.4z m16.8 -10.3 c4.1 -2.1 7.9 -7 8.7 -11.1 1.5 -8.1 -3.6 -22.3 -10.2 -28.4 -4.9 -4.5 -6.8 -4.8 -12.3 -2 -5.4 2.7 -8.6 9.3 -7.8 16.3 0.9 8.6 4.5 16.7 9.7 22 5 5 7.3 5.6 11.9 3.2z"/>
  <path d="M462.9 1078.7 l-5.7 -2.1 -4.8 -15.4 -4.8 -15.4 -2.3 6.8 c-2.9 8.5 -2.9 9.2 0.2 10 2.1 0.5 2.5 1.2 2.5 4.5 0 3.8 -0.1 3.9 -3.7 3.9 -2.1 0 -8.6 -1.6 -14.5 -3.6 l-10.8 -3.6 0 -3.8 c0 -3.9 0 -3.9 4.3 -4.2 l4.2 -0.3 6.7 -19 c3.7 -10.4 6.7 -19.7 6.7 -20.6 0.1 -0.9 -1 -2.1 -2.4 -2.7 -2.2 -1 -2.5 -0.9 -3.7 2.3 -1 2.9 -1.7 3.5 -4.3 3.5 -2.8 0 -3.2 0.5 -7.4 10 l-4.3 10 -3.9 0 -3.8 0 -0.3 -4.7 c-0.3 -4.6 -0.5 -4.9 -5.3 -7.5 l-4.9 -2.6 -3.3 7 c-1.8 3.8 -3.3 7.3 -3.3 7.7 0 0.5 3.4 2.3 7.5 4.1 l7.5 3.3 4 -2.7 c2.4 -1.6 5.3 -2.6 7.5 -2.6 3.3 0 3.5 0.2 3.5 3.6 0 2.7 -1 4.7 -4.2 8.5 -6.1 7.3 -8 7 -31.8 -3.8 l-19.1 -8.7 0.3 -3.6 c0.3 -3.4 0.4 -3.5 4.8 -3.6 l4.4 -0.1 8.8 -18.9 c4.8 -10.4 8.8 -19.3 8.8 -19.8 0 -0.5 -1.2 -1.9 -2.6 -3.3 l-2.5 -2.3 -3.2 2.2 c-1.8 1.2 -12.1 8.9 -22.9 17 -16.7 12.5 -20.3 14.8 -23.3 14.8 l-3.5 0 0 -4.7 c0 -2.7 1.4 -16.2 3.1 -30.1 l3.2 -25.3 -2.1 -2.2 c-1.1 -1.2 -2.2 -3.1 -2.4 -4.2 -0.3 -1.5 -3.7 2.5 -13.4 15.5 -11.4 15.2 -12.9 17.7 -11.8 19.1 0.8 0.8 1.4 3.2 1.4 5.2 0 3.6 -0.1 3.7 -3.5 3.7 -2.8 0 -5.5 -1.4 -13 -7.1 -8.8 -6.6 -9.5 -7.4 -9.5 -10.6 l0 -3.5 5.1 0.4 5.1 0.3 12.5 -16.8 c12.2 -16.5 12.4 -16.9 11.1 -19.7 -1.4 -3.2 -3 -4.3 -5 -3.4 -0.7 0.3 -8.7 8.6 -17.7 18.5 -15.3 16.7 -16.6 17.9 -19.9 17.9 l-3.5 0 0.6 -17.7 c0.4 -9.8 1 -21.4 1.3 -25.8 l0.6 -8 -8.3 8.9 c-9.8 10.3 -10.5 11.4 -9 12.9 0.6 0.6 1.1 2.6 1.1 4.4 0 3.2 -0.1 3.3 -4.3 3.3 -3.9 0 -4.8 -0.5 -10.5 -6.3 -5.4 -5.4 -6.2 -6.8 -6.2 -10 0 -3.6 0.1 -3.7 3.4 -3.7 1.9 0 3.8 0.5 4.1 1 0.3 0.6 1 1 1.4 1 0.4 0 7.1 -7 14.9 -15.5 15.1 -16.4 14.8 -15.7 10.8 -20.9 -1.4 -1.7 -2 -1.4 -11.3 6.9 -5.4 4.8 -11.8 10.2 -14.3 11.9 -4.2 2.9 -5 3.1 -13.5 3.1 -9.9 0 -12.8 -1.3 -18.8 -7.9 -5.2 -5.8 -6.7 -9.9 -6.7 -18.2 0 -10.5 1.8 -13.3 17.3 -26.8 l12.5 -10.9 -0.5 -5.3 -0.6 -5.4 3.6 0 c3.3 0 4.3 0.8 11.6 9.1 6.7 7.6 8.1 9.7 8.1 12.5 0 3.3 -0.1 3.4 -3.9 3.4 -2.2 0 -4.3 -0.4 -4.6 -1 -0.3 -0.5 -1 -1 -1.5 -1 -1.7 0 -25.8 21.9 -27.9 25.4 -2 3.2 -2.1 3.7 -0.7 6.3 1.7 3.4 5.1 6.6 9.2 8.6 2.9 1.5 3.4 1.5 6.3 -0.1 5.8 -3.1 28.3 -23.4 27.1 -24.6 -0.5 -0.5 -1 -2.7 -1 -4.8 0 -3.7 0.1 -3.8 3.8 -3.8 3.4 0 4.3 0.6 10 7.3 3.4 3.9 6.2 8.2 6.2 9.3 0 1.2 1.6 3.6 3.5 5.3 3.4 2.9 3.5 3.3 3.5 9.8 0 3.8 -0.5 14 -1.1 22.7 -0.5 8.7 -0.8 16 -0.6 16.2 0.2 0.2 4.1 -3.7 8.7 -8.6 6.2 -6.8 8 -9.4 7.1 -10.3 -0.6 -0.6 -1.1 -2.8 -1.1 -4.9 0 -3.7 0.1 -3.8 3.4 -3.8 2.9 0 4.6 1.2 11.2 7.6 4.4 4.2 12.1 10.7 17.2 14.6 5.4 4.2 9.2 7.8 9.2 8.8 0 1.2 3.1 3.5 9.1 7 9 5.2 9 5.2 8.7 8.9 -0.3 3.3 -0.6 3.6 -3.8 3.9 -1.9 0.2 -3.8 0.7 -4.3 1.1 -0.4 0.4 -1.4 5.9 -2.2 12.2 -0.8 6.2 -1.7 12.7 -2 14.2 -0.4 2.6 0.4 2.1 11.3 -6.2 l11.7 -8.9 -0.3 -5.1 -0.4 -5.1 3.3 0 c3.6 0 17.9 7.7 17.9 9.7 0 0.6 0.6 1.3 1.4 1.5 0.8 0.2 9.8 4.1 20 8.8 13.8 6.3 18.6 9 18.6 10.3 0 1.3 0.8 1.7 3.4 1.7 1.9 0 9.4 2.1 16.8 4.7 10.3 3.6 14.2 5.5 17.3 8.4 3.7 3.5 3.9 4 4.3 10.8 0.5 8.2 -0.7 12 -5 15.6 -2 1.7 -4.2 2.5 -6.9 2.5 -2.1 0 -3.9 0.3 -3.9 0.8 0 1.5 5.1 16.4 6.5 19.2 0.8 1.6 2.8 3.8 4.5 5 2.3 1.7 3 2.9 3 5.6 l0 3.4 -4.7 -0.1 c-2.7 0 -7.3 -1 -10.4 -2.2z m-2.1 -44.2 c4.5 -3.8 4.7 -6.2 0.7 -10.2 -1.8 -1.8 -3.8 -3.3 -4.3 -3.3 -1.6 0 -6.3 14.8 -4.9 15.4 2.8 1.1 5.7 0.4 8.5 -1.9z m-43.6 -17.5 c0.9 -1.4 2.4 -2 5 -2 3.3 0 3.8 -0.3 3.8 -2.2 0 -1.3 -0.4 -2.8 -0.8 -3.4 -0.7 -1.2 -12.5 -7.4 -13.9 -7.4 -0.5 0 -2 2.7 -3.5 6 l-2.6 6 4.6 2.5 c5.8 3 5.9 3 7.4 0.5z"/>
  <path d="M773 1070.2 c0 -3.3 0.4 -3.9 3 -4.9 l2.9 -1.1 -6.6 -19.8 c-3.6 -11 -7 -20.5 -7.6 -21.1 -0.5 -0.7 -2.7 -1.3 -4.9 -1.3 -3.9 0 -3.9 0 -3.6 -3.7 l0.3 -3.6 19 -6.4 c10.4 -3.5 20.6 -6.3 22.7 -6.3 3.5 0 3.7 0.2 5.7 5.5 1.2 3.1 2.1 7.1 2.1 9 0 3.1 -0.3 3.5 -2.6 3.5 -1.7 0 -2.4 0.5 -2.2 1.3 3.4 9 5.9 18.2 5.6 20.4 -0.3 2.4 -0.8 2.8 -4 3.1 -2.1 0.2 -3.8 -0.1 -3.8 -0.5 0 -0.5 -0.6 -1.7 -1.3 -2.7 -1.2 -1.6 -1.8 -1.7 -5.4 -0.6 l-4.1 1.3 2.3 6.6 c3.7 10.5 3.3 10.1 7.6 10.1 3.9 0 3.9 0 3.9 3.9 l0 3.9 -10.8 3.6 c-5.9 2 -12.4 3.6 -14.5 3.6 -3.6 0 -3.7 -0.1 -3.7 -3.8z m17 -40.5 c1.9 -0.9 2.6 -2.3 3 -5.2 0.4 -3.2 1 -4.1 2.8 -4.3 2.9 -0.4 2.8 -1.6 -0.3 -4 -2.5 -2 -2.5 -2 -8.9 0.1 l-6.3 2 2 6.4 c2.2 6.7 3.2 7.3 7.7 5z"/>
  <path d="M864 1030.4 c0 -2.3 0.7 -4.2 2 -5.2 1.9 -1.7 1.7 -2.1 -8.5 -19.2 -5.7 -9.6 -10.8 -17.6 -11.3 -17.8 -0.5 -0.1 -2 0.6 -3.3 1.7 -2 1.6 -2.4 2.8 -2.4 7.3 l0 5.3 -3.5 0.3 c-3.3 0.2 -3.7 0 -6.7 -5.7 -5.9 -10.8 -6.3 -10.2 17.2 -23.8 11.8 -6.8 20.5 -12.4 20.5 -13.3 0 -0.8 7.6 -7 16.9 -13.7 20.1 -14.7 21.7 -15.1 27.6 -7.8 3 3.6 3.6 5.1 3.4 8.3 -0.3 3.4 0.4 4.9 4.9 10.9 4 5.5 5.2 7.9 5.2 10.7 0 3.5 -0.1 3.6 -3.5 3.6 -1.9 0 -4.4 -0.5 -5.4 -1.2 -1.5 -0.9 -2.5 -0.6 -5.9 1.8 -2.3 1.6 -4.2 3.3 -4.2 3.8 0 0.7 4.5 7.2 8.6 12.5 0.5 0.6 12.4 -9 13.4 -10.9 0.5 -1 1 -4.4 1 -7.4 l0 -5.6 3.9 0 3.8 0 2.3 7.8 c1.2 4.3 2 8.8 1.8 10 -0.2 1.4 -6 6.3 -17.3 14.6 -14.5 10.7 -17.5 12.5 -20.7 12.6 -3.7 0 -3.8 -0.1 -3.8 -3.6 0 -2.3 0.6 -4.1 1.7 -4.9 1.5 -1.1 0.5 -2.8 -9.7 -16.6 -6.2 -8.5 -12 -16.4 -12.9 -17.6 -0.9 -1.2 -1.9 -2.3 -2.3 -2.3 -1.4 0 -0.8 2.1 1.3 5.1 1.3 1.9 1.9 4.1 1.7 6.1 -0.3 2.9 -0.7 3.3 -3.7 3.6 -2.4 0.3 -4 -0.3 -5.7 -1.9 -2.3 -2.2 -2.5 -2.2 -5.9 -0.6 -3.3 1.6 -3.5 1.9 -2.4 4 2.4 4.4 18.2 31.2 19.1 32.5 0.6 0.6 3 1.2 5.4 1.2 l4.4 0 0 3.8 c0 3.6 -0.2 3.8 -9.9 9.5 -7.1 4 -11 5.7 -13.5 5.7 -3.5 0 -3.6 -0.1 -3.6 -3.6z m44.1 -75.5 c-0.3 -5.3 -1.4 -7.9 -3.4 -7.9 -0.8 0 -8.4 5.3 -12.6 8.7 -0.2 0.1 1.3 2.8 3.4 5.8 l3.7 5.5 4.6 -3.4 c4.6 -3.3 4.6 -3.4 4.3 -8.7z"/>
  <path d="M590.5 996.3 c-42.5 -2.3 -91.5 -13.7 -131.8 -30.9 -87.8 -37.3 -160.6 -106.4 -202.1 -191.8 -37.5 -77.2 -49.3 -166.2 -33.5 -253.9 11.6 -64.3 40.9 -127.2 83.8 -179.7 10.8 -13.2 33.5 -36.6 46.6 -47.9 54 -46.7 122.3 -79.3 190.5 -91 27.2 -4.7 39.1 -5.6 73.5 -5.6 35.4 0 48.1 1.1 75.5 6.1 163.3 30.1 291.6 159.8 319.4 322.9 4.5 26.5 5.1 34.3 5.1 72 0 39.4 -0.9 49.8 -6.6 79.1 -32.5 167 -169.4 295.9 -337.4 317.8 -24.4 3.2 -56.7 4.3 -83 2.9z m63.7 -22.9 c88.3 -8.6 172.3 -49.4 234.4 -113.6 39.9 -41.3 68.5 -87.8 87.7 -142.3 14.6 -41.5 21.8 -88.1 20.4 -131.5 -2.7 -81.1 -29 -154.5 -78.8 -220 -81.1 -106.7 -217.6 -164.1 -348.4 -146.4 -60 8.1 -114.7 29.2 -166 64.2 -19.8 13.4 -33 24.6 -53.5 45.1 -25.8 25.9 -40.7 44.8 -57.9 73.6 -15.8 26.5 -25.6 47.9 -35.1 76.5 -14.2 42.5 -19.8 80.6 -18.7 125.9 1.4 55.9 13.7 105.6 39.2 157.6 19.5 39.8 43.1 72.3 75.6 104 29.9 29.2 57.8 49.1 94.9 67.9 66.3 33.6 133 46.2 206.2 39z"/>
  <path d="M938.7 963.6 c-8.2 -3 -15.6 -10.3 -19.2 -19 -1.8 -4.3 -2 -20.2 -0.3 -25.8 1.7 -5.9 8.8 -13.2 15.3 -15.9 4.8 -2 5.5 -2.6 5.5 -5.1 0 -2 0.5 -2.8 1.8 -2.8 1 -0.1 4 -3.6 7.7 -9 5.8 -8.7 6.1 -9 9.8 -9 l3.9 0 -0.3 4.6 c-0.3 4.2 0 5 2.8 7.3 1.7 1.4 4.5 3.4 6.1 4.3 l3 1.8 4.8 -7 c2.9 -4.2 4.4 -7.4 3.8 -7.9 -0.5 -0.4 -3.4 -2.5 -6.4 -4.5 -4.5 -3 -5.6 -3.3 -6.3 -2.1 -0.5 0.9 -2.3 1.5 -4.7 1.5 -3.9 0 -4 -0.1 -4 -3.6 0 -2.8 1.4 -5.7 6.5 -13 3.7 -5.2 7 -9.4 7.5 -9.4 0.4 0 2.5 -3 4.6 -6.7 2 -3.8 3.8 -6.9 3.8 -7 0.1 -0.1 9.2 -2.1 20.1 -4.3 11 -2.3 20.8 -4.4 21.7 -4.8 1.3 -0.5 -1 -2.1 -8.8 -6.2 -9.8 -5.1 -10.6 -5.4 -11.8 -3.7 -0.8 1.1 -2.7 1.7 -5 1.7 -3.5 0 -3.6 -0.1 -3.6 -3.6 0 -2.4 1.5 -6.4 4.2 -11.5 4.1 -7.7 4.3 -7.9 7.9 -7.9 l3.8 0 0.3 4.7 0.3 4.6 22.3 11.6 22.2 11.6 -0.2 4 -0.3 3.9 -22.5 4.7 c-12.4 2.5 -23.2 4.8 -24 5.1 -0.9 0.3 3.5 3 10.5 6.6 11.5 5.8 12 6 13.3 4.1 0.9 -1.2 2.5 -1.9 4.8 -1.9 3.3 0 3.4 0.2 3.4 3.7 0 2.3 -1.5 6.7 -4.2 12 -4.2 8.3 -4.3 8.4 -7.8 8.1 -3.4 -0.3 -3.5 -0.4 -3.6 -4.8 l-0.1 -4.5 -17.4 -9.2 c-9.6 -5.1 -18.1 -9.2 -19 -9.3 -0.8 0 -2.6 1.1 -3.9 2.5 -1.3 1.4 -2.9 2.5 -3.6 2.5 -0.6 0 -1.4 0.7 -1.8 1.5 -0.6 1.6 2.1 3.7 22.8 18 11.5 7.9 13 8.7 14.1 7.2 0.8 -1.1 2.6 -1.7 4.9 -1.7 3.5 0 3.6 0.1 3.6 3.8 -0.1 2.9 -1.4 5.6 -6.4 12.7 -6 8.7 -6.4 9 -10.4 9.3 -4.2 0.3 -4.2 0.3 -4.2 -3 0 -1.9 0.5 -3.9 1.1 -4.5 0.7 -0.7 -0.9 -2.4 -5.6 -5.7 -3.6 -2.5 -6.9 -4.6 -7.3 -4.6 -0.4 0.1 -2.8 3.2 -5.3 6.9 l-4.6 6.9 6.5 4.6 c5.9 4.1 6.8 4.4 8.2 3.1 0.9 -0.8 3.3 -1.5 5.3 -1.5 3.5 0 3.7 0.1 3.7 3.4 0 2.7 -1.6 5.8 -6.6 13 -6.6 9.4 -6.8 9.6 -10.7 9.6 l-4 0 0.6 -4.8 0.6 -4.7 -5.7 -4 c-14.4 -10.2 -28.4 -19.3 -25.4 -16.7 2.5 2.3 3.2 3.6 3.2 6.6 l0 3.8 -4.7 -0.5 c-2.7 -0.2 -6.3 -1 -8.1 -1.8 -3.1 -1.3 -3.7 -1.2 -8 1.2 -5 2.8 -9.2 8.6 -9.2 12.8 0 6.7 9.9 19.5 18.5 23.6 6.6 3.3 9.6 2.8 15.4 -2.2 5.8 -4.9 7.4 -8.4 7.2 -16 l-0.1 -6.3 3.9 0 c3.8 0 4 0.2 4.7 3.6 1.3 7 -0.1 17.8 -2.9 22.7 -3.2 5.4 -8.9 10.2 -14.7 12.2 -5.3 1.9 -18.2 1.9 -23.3 0.1z"/>
  <path d="M173.7 838.3 c-1.8 -1.7 -0.1 -7.6 7.7 -26.4 4.6 -11.2 8.2 -20.6 8.1 -20.8 -0.2 -0.2 -5.2 2.3 -11.1 5.5 l-10.8 5.9 0 4.5 c-0.1 4.4 -0.2 4.5 -3.6 4.8 -3.4 0.3 -3.6 0.1 -7.9 -8 -2.5 -4.5 -4.8 -10.1 -5.2 -12.3 -0.4 -2.2 -2.1 -8.7 -3.8 -14.5 -1.7 -5.8 -3.1 -12 -3.1 -13.7 0 -3.1 0.2 -3.3 3.6 -3.3 2.1 0 4.2 0.6 4.8 1.5 0.9 1.2 1.7 1 4.8 -1.8 l3.7 -3.2 -2.1 -7.6 -2.1 -7.7 -3.9 -0.6 c-4.9 -0.8 -5.8 -0.2 -5.8 3.5 0 2.9 -0.1 3 -4.2 2.7 l-4.2 -0.3 -2.2 -8 c-1.2 -4.4 -2.3 -9.2 -2.3 -10.7 -0.1 -1.8 -0.7 -2.8 -1.6 -2.8 -0.8 0 -1.7 -1 -2 -2.2 -1.1 -5 -3.5 -21.5 -3.5 -24.5 0 -3.2 0.2 -3.3 4 -3.3 3.2 0 4 0.4 4 1.9 0 3.8 2.5 4.5 10.7 3.3 4.2 -0.7 7.8 -1.3 7.9 -1.5 0.2 -0.2 -2.5 -18 -2.9 -18.3 -0.7 -0.6 -14.9 2.5 -16.2 3.6 -0.8 0.7 -1.5 2.5 -1.5 4.1 0 2.7 -0.3 2.9 -3.8 2.9 l-3.9 0 -1.6 -10 c-1 -5.4 -1.7 -12 -1.7 -14.5 0 -4.4 0 -4.5 3.3 -4.5 2.6 0 3.6 0.6 4.5 2.5 0.7 1.4 1.7 2.8 2.4 3 2.1 0.8 40.9 -6.2 42.2 -7.5 0.8 -0.9 0.8 -1.4 -0.1 -1.7 -0.7 -0.3 -1.3 -1.3 -1.3 -2.2 0 -1 -0.9 -2.6 -2 -3.6 -1.8 -1.6 -3 -1.7 -18 -0.5 -8.8 0.6 -18.2 0.9 -21 0.5 -10.7 -1.5 -15.8 -8.2 -16.7 -22.2 -0.6 -10.2 0.6 -15.8 4.4 -20.4 4.1 -4.8 8.1 -5.9 27.1 -7.5 16.9 -1.4 21.2 -2.3 21.2 -4.5 0 -2.9 -6.5 -6.2 -29.8 -14.8 l-25.2 -9.5 0 -4.1 0 -4.1 12.3 -3.9 c6.7 -2.1 12.6 -4.1 13 -4.5 0.4 -0.4 -4.9 -2.8 -11.8 -5.5 l-12.5 -4.8 0 -4.1 0 -4.1 27.1 -8.8 c25.8 -8.4 27.2 -9 28.2 -11.8 1 -2.5 1.7 -2.9 4.9 -2.9 l3.7 0 -0.5 14.3 c-0.2 7.8 -0.7 20.2 -1 27.5 l-0.6 13.2 -3.3 0 c-2.7 0 -3.4 -0.5 -3.9 -2.5 -0.4 -1.4 -1.2 -2.5 -1.9 -2.5 -0.6 0 -6.5 1.6 -13 3.7 l-11.8 3.7 12.3 4.6 12.3 4.6 0.9 -2.3 c0.8 -1.8 1.8 -2.3 4.6 -2.3 l3.6 0 1.2 20.8 c1.7 27.9 2 25.2 -2.8 25.2 -3.5 0 -4 -0.3 -4 -2.3 0 -1.3 -0.8 -3.1 -1.7 -3.9 -1.6 -1.3 -3.7 -1.4 -17.1 -0.2 -17.1 1.4 -21.5 2.9 -24.5 8.2 -1.9 3.1 -1.9 3.5 -0.2 7.7 1.8 5 6.1 9 10.2 9.9 1.6 0.3 9.5 0 17.7 -0.8 16 -1.4 17.6 -2.1 17.6 -7.3 0 -2 0.5 -2.3 3.5 -2.3 3.9 0 4 0.4 4.8 13.4 0.3 3.8 1 7.1 1.6 7.5 1.3 0.8 5.6 26.4 4.8 28.5 -0.8 2.1 -7.7 2.3 -7.7 0.2 0 -0.8 -0.8 -2.3 -1.7 -3.4 -1.7 -1.9 -2.3 -1.9 -9 -1 -5.7 0.8 -7.3 1.4 -7.2 2.7 0 2.8 2.6 16.1 3.1 16.7 1 0.9 13.9 -1.8 15.3 -3.3 0.8 -0.8 1.5 -2.8 1.5 -4.4 0 -2.9 0.2 -3 3.8 -2.7 l3.7 0.3 1.7 10.5 c0.9 5.8 1.7 12.4 1.7 14.8 l0.1 4.2 -4 0 c-3.2 0 -4 -0.4 -4 -1.9 0 -4.5 -2 -4.6 -22.7 -1.3 -20.6 3.4 -23.3 4.4 -23.3 8.9 0 1.6 0.6 2.3 2 2.3 1 0 2.4 0.9 3 2 1.4 2.6 4.8 3.4 31.5 7 31.1 4.1 28.5 3.4 28.5 8 0 3.9 -0.1 4 -20.4 19.9 -26.6 20.9 -28.3 23 -23.3 28.5 l2.3 2.5 17 -9 c9.3 -5 17.6 -9.9 18.5 -10.9 1.2 -1.4 1.5 -3.2 1.1 -6.9 l-0.5 -5.1 3.9 0 c3.7 0 4.1 0.3 7.2 5.9 4.7 8.7 4.4 11 -4.2 31.8 -4.1 9.8 -7.3 17.9 -7.2 18.1 0.2 0.1 4.7 -2.2 10.2 -5.2 l9.9 -5.4 -0.3 -4.6 -0.4 -4.6 4.1 0 c4 0 4 0 8.5 8.4 2.7 4.9 4.6 9.6 4.6 11.5 0 3 -0.2 3.1 -4 3.1 -2.7 0 -4.3 -0.5 -4.6 -1.5 -0.4 -0.8 -1 -1.5 -1.4 -1.5 -0.4 0 -10.4 5.2 -22.1 11.5 -20.1 10.8 -26 13.1 -28.2 10.8z m1.1 -94.6 c-1.2 -0.4 -3.2 -0.7 -4.3 -0.5 -1.9 0.3 -2 0.7 -1.3 3.6 l0.9 3.2 3.4 -2.7 c3.4 -2.7 3.4 -2.8 1.3 -3.6z m-13.7 -193.8 c5.2 -1.8 7.9 -4.7 7.9 -8.6 0 -2 -0.5 -3.3 -1.2 -3.3 -0.7 0 -6.6 1.7 -13.1 3.7 l-11.8 3.7 6.8 2.7 c8.1 3.3 7.2 3.2 11.4 1.8z"/>
  <path d="M1033.2 810 c-7.3 -2.6 -13.5 -7.9 -16.6 -14.2 -2.3 -4.6 -2.6 -6.4 -2.6 -15.2 0.1 -14.8 3.7 -21.8 14.5 -27.4 4.4 -2.3 6.2 -2.6 14.5 -2.7 11.7 0 18 2 24.5 7.7 2.5 2.2 5.8 6.4 7.2 9.2 2.3 4.4 2.7 6.4 2.7 14.6 0.1 8.4 -0.2 10.1 -2.7 15.2 -3.1 6.4 -8.3 11 -14.7 13.3 -6.2 2.2 -20.2 1.9 -26.8 -0.5z m23.9 -13.1 c4.4 -1.5 7.8 -4.6 9.5 -8.6 1.2 -2.8 1.2 -3.8 0 -6.5 -2 -4.8 -7.2 -9.3 -14.8 -12.8 -12.9 -6 -21.9 -4.7 -26.5 3.9 -1.8 3.5 -2 4.7 -1.1 7.2 2.2 6.4 10.3 12.3 21.8 16 6.7 2.2 6.9 2.2 11.1 0.8z"/>
  <path d="M1078.8 755.8 l-0.3 -4.3 -20 -5.7 c-11 -3.2 -20.6 -5.6 -21.3 -5.3 -0.8 0.3 -1.6 1.4 -1.9 2.5 -0.4 1.6 -1.4 2 -4.4 2 -3.7 0 -3.9 -0.2 -3.9 -3.1 0 -1.7 1.5 -8.4 3.2 -15 l3.3 -11.9 3.7 0 3.8 0 0 4.5 c0 5.5 -1.1 4.9 21 11 9.1 2.5 17.3 4.8 18.2 5.1 1.4 0.4 2.1 -0.9 3.7 -6.4 2.7 -9.1 2.7 -9.5 -1.4 -14.1 -2.6 -2.9 -3.5 -4.7 -3.5 -7.5 0 -3.4 0.2 -3.6 3.3 -3.6 2.2 0 5.5 1.4 9.5 4 6.1 3.9 6.2 4 6.2 8.5 0 2.4 -2 11.8 -4.6 20.7 -6.9 24.9 -5.9 22.8 -10.4 22.8 -3.9 0 -3.9 0 -4.2 -4.2z"/>
  <path d="M1061.3 699.4 c-10.4 -3.7 -17.4 -13.9 -18.1 -26.5 -1.1 -18.9 8.4 -30.4 26.9 -32.7 4.1 -0.5 6.2 -1 4.6 -1.1 -7.1 -0.3 -16.9 -7.3 -21.2 -15.2 -2.4 -4.5 -3 -6.9 -3.3 -14 -0.3 -5.9 0.1 -10.3 1.1 -13.8 0.8 -2.8 1.1 -5.1 0.6 -5.1 -0.5 0 -0.9 -1.8 -0.9 -4 l0 -4 12 0 12 0 0 3.5 c0 3 -0.4 3.6 -4.2 5.3 -5.1 2.3 -9.1 6.5 -10.6 11 -2.4 7 5.1 16.7 15.2 19.7 6.2 1.9 8 1.9 14.4 0 10 -3 17.2 -12.4 15.2 -19.7 -1.1 -4 -3.2 -4.8 -12.1 -4.8 -4.9 0 -7.9 1.8 -7.9 4.6 0 1 -1.2 1.4 -4.1 1.4 l-4.1 0 0.8 -12.7 c0.3 -7.1 0.8 -13.1 1.1 -13.5 0.8 -1.4 7.3 -0.9 7.3 0.5 0 0.7 0.6 2.1 1.3 3.1 1 1.4 3.5 1.9 12.5 2.5 6.1 0.4 11.4 1 11.7 1.2 0.2 0.3 1.2 3.4 2.1 7 2.3 8.8 1.5 23.5 -1.6 30.7 -2.5 5.7 -9.2 12.5 -14.6 14.8 -1.9 0.8 -6.7 1.8 -10.7 2.3 -4 0.5 -6 0.9 -4.6 1 12.7 0.6 24.1 12.2 25.5 26 1.7 15.4 -4.6 27.4 -16.9 32.6 -4.8 2 -23.5 1.9 -29.4 -0.1z m26.5 -15 c18.9 -7.9 9.3 -26.1 -15 -28.1 -10.6 -0.9 -18.1 3.7 -19.5 12 -1.7 10.7 21.5 21.6 34.5 16.1z"/>
  <path d="M1053.6 571.8 c-0.3 -5 -0.6 -11.7 -0.6 -15 l0 -5.8 4 0 c3.4 0 4 0.3 4 2.1 0 1.5 0.5 1.9 1.5 1.5 1.8 -0.7 13.5 -8.5 13.5 -9 0 -0.2 -3.2 -2.3 -7.1 -4.6 -5.7 -3.4 -7.3 -3.9 -8 -2.9 -0.5 0.8 -0.9 1.7 -0.9 2.2 0 0.4 -1.5 0.7 -3.4 0.7 l-3.3 0 -0.7 -9.2 c-1.1 -16.3 -1.2 -15.8 3.4 -15.8 3.4 0 4.1 0.4 4.6 2.4 0.8 3.5 3.5 5.6 17.4 14 12.2 7.5 12.6 7.6 19.1 7.6 7.5 0 9.9 -1.4 9.9 -5.6 0 -2.1 0.4 -2.4 4 -2.4 l4 0 0 15 0 15 -3.4 0 c-3 0 -3.5 -0.4 -4.1 -3 -0.8 -3.8 -3.1 -5 -9.4 -5 -4.5 0 -5.9 0.6 -14.8 6.7 -16.4 11.2 -19.9 14 -21.3 17.2 -1 2.6 -1.8 3.1 -4.5 3.1 l-3.2 0 -0.7 -9.2z"/>
  <path d="M212.7 445.3 c-1 -1 -0.8 -6.2 0.4 -10.2 3 -9.9 3 -9.1 -0.1 -9.1 -4.7 0 -5.8 -0.9 -7.6 -6.3 -0.9 -2.9 -2.3 -6 -3 -7 -1.2 -1.8 -1.3 -1.8 -2.3 0.2 -1.5 2.8 -9.5 6.1 -14.7 6.1 l-4.4 0 0 -3.8 c0 -2.1 0.6 -5.8 1.4 -8.3 1.4 -4.3 7.6 -29.9 7.6 -31.3 0 -0.4 -2 0.5 -4.5 1.9 -2.9 1.8 -5.5 2.5 -7.7 2.3 -3 -0.3 -3.3 -0.6 -3.6 -4.1 -0.2 -2.1 0.8 -7.8 2.2 -12.7 1.4 -4.9 2.6 -10.4 2.6 -12.4 0 -2.6 0.5 -3.6 2.1 -4.1 1.9 -0.6 2 -0.9 0.6 -2.3 -0.9 -0.8 -5.8 -4.1 -10.9 -7.2 l-9.3 -5.6 -0.3 -4.8 c-0.3 -4.2 0.1 -5.3 2.4 -7.7 2.5 -2.7 3.4 -2.9 9.8 -2.9 l6.9 0 6.4 6.8 c3.5 3.7 7.9 8.4 9.9 10.5 l3.7 3.8 1.1 -2.3 c0.8 -1.7 2.2 -2.4 5 -2.6 5.6 -0.5 7.6 1.8 7.6 8.6 0 6.2 0.3 6.6 9.5 11.3 5.7 3 5.9 3 3.8 0.7 -1.6 -1.7 -2.3 -3.7 -2.3 -6.6 l0 -4.2 6.1 0 c8.6 0 12.1 2.3 23.9 15.6 l10 11.3 0 5.8 c0 3.3 -0.5 6.4 -1.2 7.1 -1.9 1.9 -10.2 1.4 -16 -0.9 -2.9 -1.1 -7 -2.4 -9.3 -2.8 l-4 -0.7 0.2 16 c0.2 19 -1.1 40.8 -2.7 45.3 -0.9 2.5 -2.4 3.8 -5.7 5.3 -4.4 1.9 -12.3 2.7 -13.6 1.3z m7.3 -40.7 c0 -1.9 -0.4 -2.3 -1.9 -1.9 -1.8 0.5 -1.8 0.6 -0.3 2.3 2.2 2.4 2.2 2.4 2.2 -0.4z m-14 -3.1 c0 -0.2 -0.8 -1.8 -1.8 -3.5 -2.1 -3.4 -3.2 -3 -3.2 1.2 0 2.3 0.4 2.8 2.5 2.8 1.4 0 2.5 -0.2 2.5 -0.5z"/>
  <path d="M994.6 426.8 c-1.9 -2.9 -5.8 -21.8 -5.4 -26.1 0.3 -2.9 0.6 -3.2 4 -3.5 3.1 -0.3 3.7 0.1 4.3 2 0.4 1.3 1.6 3.8 2.7 5.6 l2 3.3 3.7 -2.7 c2 -1.5 5.6 -4.3 8 -6.2 4 -3.3 4.2 -3.6 2.5 -4.9 -1 -0.7 -6.1 -2.7 -11.4 -4.5 -6.3 -2 -10.2 -3.9 -11 -5.2 -0.7 -1.1 -1.5 -6.7 -1.8 -12.8 -0.5 -12.2 0.1 -13.8 5.4 -13.8 2.6 0 3.9 0.7 5.6 3.1 3.3 4.6 30.7 26.9 32.9 26.9 0.8 0 -0.9 -1.5 -3.6 -3.4 -7 -4.7 -7.7 -5.7 -8.3 -13.1 l-0.5 -6.5 2.9 0 c2.9 0 2.9 0 2.5 -5.7 -0.3 -5.1 0.2 -6.6 4.2 -14.7 2.4 -5 4.9 -10.4 5.6 -11.9 1 -2.6 1.5 -2.8 5.3 -2.6 2.3 0.2 4.3 -0.1 4.4 -0.6 0.1 -0.6 0.5 -2.2 0.8 -3.7 0.6 -2.5 1.1 -2.8 4.5 -2.8 4.8 0 5.1 0.7 5.1 12 l0 8.9 3.8 0.3 c3.4 0.3 3.8 0.7 5 4.3 1.2 4 1.2 4 6.5 4 l5.2 0 0.1 10.3 0.1 10.4 4 3.7 c3.8 3.4 4.2 4.2 4.8 10.3 1 9.7 0 14.3 -3.9 17.3 -5 3.8 -10.3 3.4 -15.7 -1 -5.5 -4.7 -7.9 -6 -7.9 -4.3 0 0.7 -0.5 3 -1.1 5.2 l-1.1 3.8 -5.3 -0.4 -5.2 -0.4 -0.7 7 c-0.7 7.6 -1.4 8.6 -6.3 8.6 -4.2 0 -13 -6.9 -13.5 -10.6 -0.3 -2.5 -0.9 -2.1 -10.5 7 l-10.3 9.6 -5.5 0 c-4.6 0 -5.7 -0.4 -6.9 -2.2z m74.4 -42.7 c0 -0.5 -0.7 -1.4 -1.5 -2.1 -0.8 -0.7 -1.5 -1 -1.5 -0.7 0 0.3 -0.3 1.2 -0.6 2.1 -0.4 1.2 0 1.6 1.5 1.6 1.2 0 2.1 -0.4 2.1 -0.9z"/>
  <path d="M202.6 327.5 c-1.7 -2.2 -4 -3.8 -6.6 -4.5 l-4 -1.1 0 -5.3 c0 -7.3 1.6 -8.6 10.8 -8.6 6 0 7.5 0.4 9.9 2.4 2.5 2.2 2.7 2.9 2.8 9.8 0 8.9 -1.1 10.8 -6.5 10.8 -3.1 0 -4.2 -0.6 -6.4 -3.5z"/>
  <path d="M912 305.5 c-0.7 -0.8 -1.6 -1.5 -2.1 -1.5 -0.4 0 -3.7 -1.8 -7.3 -4.1 -6.4 -4 -6.5 -4.1 -7.1 -9.4 -0.4 -3 -0.5 -6.9 -0.3 -8.7 0.4 -2.9 6 -22.5 7.5 -26.4 0.4 -1.2 -0.6 -1 -4.8 0.6 -3 1.1 -9 2.3 -13.5 2.7 -6.9 0.5 -8.7 0.3 -12.9 -1.6 -10.4 -4.6 -19.4 -14.9 -19.5 -22.3 0 -3.7 0.1 -3.8 3.4 -3.8 3 0 13.1 4.3 16.3 7 0.7 0.5 2.4 1 3.8 1 l2.6 0 -2.6 -2.2 c-3.1 -2.7 -4.2 -6.9 -5.1 -19.5 l-0.7 -9.3 4.4 0 c3.7 0 5.2 0.7 9.4 4.2 2.8 2.2 9 6 13.9 8.4 l9 4.2 2.5 -2 c6.6 -5.1 21.1 -23.3 21.1 -26.4 0 -1.9 7 -6.4 9.9 -6.4 4.1 0 4.7 1.6 5.4 14 0.7 12 -0.3 18.8 -3 20.7 -1 0.7 -4.2 3.2 -7.1 5.5 -5.7 4.5 -5.7 4.8 0.8 6.2 4.4 0.9 7 5.7 7.3 13.4 l0.2 6.7 -3.9 0.3 c-3.5 0.3 -6.2 -0.5 -14.1 -4.5 -1.6 -0.9 -4.3 -1.8 -6 -2.2 l-3 -0.7 -1 11.6 c-1.3 14.4 -0.5 20.8 4 30.2 2.3 4.8 3.5 8.9 3.5 11.6 l0 4.2 -4.9 0 c-3.1 0 -5.3 -0.5 -6.1 -1.5z"/>
  <path d="M330.5 295.8 c-1.7 -1.5 -3.1 -4.4 -4.1 -8.3 -0.9 -3.2 -3.6 -10 -6.1 -15 -2.5 -4.9 -5.6 -12.1 -7 -16 -1.4 -3.8 -4.3 -9.6 -6.4 -12.7 -2.2 -3.2 -3.9 -6.9 -3.9 -8.3 0 -1.8 -0.5 -2.5 -1.8 -2.5 -2.7 0 -4.7 -2.6 -8.6 -11.1 -1.9 -4.1 -4.5 -8.7 -5.7 -10.3 -1.6 -2 -2.3 -4.3 -2.3 -7.5 l-0.1 -4.6 5.2 -0.3 c8.4 -0.5 15.3 5.2 15.3 12.6 0 1.5 0.7 6 1.7 10 l1.7 7.3 8 -0.3 8.1 -0.3 2.6 9 c1.5 5 3.8 11.5 5.3 14.5 1.4 3 2.6 6.1 2.6 6.8 0 0.8 2.7 6.9 6 13.8 6.2 12.8 7.5 18.8 5 23.5 -1.6 2.9 -11.9 2.7 -15.5 -0.3z"/>
  <path d="M490.4 200.5 c-0.8 -1.9 0 -7.6 1.8 -14.5 3.3 -11.8 3.4 -11 -1.5 -11 -6.2 0 -8.7 -2.1 -8.7 -7.4 0 -3.6 0.7 -5.2 5 -10.5 5.1 -6.3 5.4 -7.5 4.2 -14.6 -0.5 -2.5 -1 -3.5 -1.5 -2.7 -1.1 1.7 -10.9 1.5 -15.2 -0.2 -3.4 -1.4 -3.5 -1.7 -3.5 -6.7 0 -4.9 0.3 -5.5 5.3 -10.8 2.8 -3.1 6.9 -7.6 8.9 -10 l3.7 -4.4 6.5 0.5 6.6 0.6 0 -4 0 -4 4.5 0.4 c5.1 0.4 3.4 2 18.6 -18 9.1 -11.9 10.1 -12.5 18.9 -12 9.6 0.5 12.4 2.6 12.8 9.8 0.3 4.3 -0.1 5.9 -2.2 8.9 -5.7 8.2 -7.9 15.1 -9.1 27.6 -1 11.5 -1.3 12.2 -4.8 17.1 -2 2.8 -3.7 6.1 -3.7 7.3 0 1.8 0.6 2.1 3.9 2.1 8 0 10.7 9.4 5.4 19.1 -1.4 2.7 -2.4 5.1 -2.1 5.4 0.3 0.3 1.7 0.1 3.2 -0.5 1.5 -0.5 5 -1 7.7 -1 4 0 6 0.6 9.5 3 3.7 2.6 4.4 3.6 4.4 6.3 0 3.7 -2.4 7.7 -4.6 7.7 -2.8 0 -13.9 4.2 -15.9 6 -3.9 3.5 -10.3 6 -15.3 6 -4.7 0 -5.1 -0.2 -7.7 -4.2 -2.6 -3.9 -2.7 -4.6 -2.2 -12 0.6 -7.1 0.4 -7.9 -1.3 -9.1 -1.6 -0.9 -2 -2.3 -2 -6.1 0 -2.7 0.5 -6.4 1.2 -8.2 0.9 -2.7 0.9 -3.7 -0.5 -5.7 -0.9 -1.4 -1.9 -4.3 -2.3 -6.5 -0.5 -3.3 -1.1 -4.1 -3.3 -4.6 -1.5 -0.3 -3.8 -2.3 -5.6 -4.8 l-3 -4.3 -0.3 4.9 c-0.4 5.9 2 9.9 6.1 10.4 2.5 0.3 2.7 0.7 2.7 5 0 2.6 -0.7 8.8 -1.5 13.7 -0.8 5 -1.5 14.2 -1.5 20.6 0 8 -0.4 12.1 -1.3 13.3 -2.4 3.2 -19.2 4.9 -20.3 2.1z"/>
  <path d="M687.1 175.8 c-3.4 -6.7 -4.1 -14.4 -1.9 -19.3 l1.2 -2.7 9.5 0.7 c5.3 0.4 11.8 1.1 14.5 1.5 4.8 0.7 4.9 0.7 15.7 -6.6 6 -4.1 11.3 -7.4 11.9 -7.4 0.5 0 1 -0.3 1 -0.8 0 -0.4 1.2 -1.3 2.8 -1.9 1.5 -0.7 4.1 -2.4 5.7 -3.8 l3 -2.4 -9.2 -0.1 c-9 0 -9.2 -0.1 -11.3 -3 -3 -4.2 -5 -11.6 -5 -18.7 l0 -6.3 4.9 0 c3.3 0 5.6 0.6 7.3 2 5.7 4.4 16.3 9 20.9 9 6.7 0 10.7 2.1 17.2 8.8 5.4 5.7 5.7 6.3 5.7 11.1 0 4.7 -0.3 5.3 -3.2 7.1 -1.8 1.1 -4.1 2 -5 2 -3.1 0 -19.2 9.5 -24.7 14.5 -0.1 0.2 3.8 0.3 8.8 0.2 8.6 -0.2 9.2 -0.1 11.8 2.5 2.2 2.3 2.8 3.8 3.1 9.1 0.6 9.1 -0.6 10.1 -11.2 9.3 -4.5 -0.4 -13 -1.4 -19 -2.3 -9.1 -1.4 -12.4 -1.5 -21.1 -0.5 -5.6 0.6 -12.2 1.8 -14.6 2.6 -2.4 0.9 -7 1.6 -10.1 1.6 l-5.6 0 -3.1 -6.2z"/>
 </g>
 <g fill="#fac640">
  <path d="M594.8 978 c-53.5 -3 -100.7 -15.8 -149.8 -40.6 -37.1 -18.8 -65 -38.7 -94.9 -67.9 -32.5 -31.7 -56.1 -64.2 -75.6 -104 -19.7 -40.2 -31.1 -77.8 -37 -122.5 -2.3 -16.9 -3.1 -59.7 -1.6 -78.2 2.8 -32.9 8 -58.5 18.1 -88.8 14.7 -44.2 34.8 -81.3 65.1 -119.9 10.7 -13.7 44.2 -47.2 58.4 -58.5 86.9 -68.9 194.5 -97 303.5 -79 131 21.6 243.3 112.6 292.5 236.9 16.8 42.6 24.9 82.7 26.2 130.5 2.3 85 -22.4 164.9 -72.5 234.4 -52 72.2 -128.9 124.5 -215.7 146.6 -35.7 9.1 -78.3 13.1 -116.7 11z m111.1 -65.7 c4.2 -3.7 12.1 -11.1 17.7 -16.5 9.6 -9.3 10.3 -9.8 14.4 -9.8 l4.3 0 -0.5 4.9 c-0.4 4.1 -2.1 8.6 -6.7 17.5 -0.2 0.6 1 0 2.8 -1.3 4.9 -3.5 20.7 -21.8 24.8 -28.6 5.2 -8.7 6.1 -9.5 10.4 -9.5 3 0 3.9 -0.4 4.4 -2.2 0.4 -1.3 3.8 -7.7 7.5 -14.3 3.7 -6.6 7.5 -13.6 8.5 -15.5 2.2 -4.4 3.1 -5 7.8 -5 3.4 0 3.7 0.2 3.7 3 0 2.8 -1.9 8.5 -7.3 21.8 l-2.6 6.2 3 0 c2 0 2.9 0.5 2.9 1.6 0 2.1 11.4 -11.7 14.2 -17.1 1.1 -2.2 4.5 -7.5 7.6 -11.7 4.9 -7 5.9 -7.8 8.7 -7.8 1.8 0 3.8 0.7 4.5 1.5 2.7 3.2 6.4 1.8 12.6 -4.7 3.3 -3.5 6.9 -7.7 8.1 -9.3 2.9 -4.1 12.2 -26.4 14.8 -35.5 2.2 -7.4 2.3 -7.5 5.8 -7.8 2.9 -0.3 3.7 -0.9 4.8 -3.5 2 -5.2 4.8 -7.7 8.6 -7.7 3 0 3.3 0.3 3.3 2.8 0 1.6 -1.1 6.2 -2.5 10.3 -1.4 4.1 -3.6 12.2 -4.9 18.1 l-2.3 10.7 3.1 -1.6 c4.3 -2.2 13.4 -9.3 17.8 -14 5 -5.3 14.1 -19 18.7 -28.1 14 -28 32.1 -87.3 38.4 -126.2 3.2 -19.4 5.1 -42.1 4.3 -50.8 -3.5 -36.3 -5.7 -45.9 -14.5 -64 -9.8 -19.9 -18.9 -30.1 -33.4 -37.2 -16.8 -8.2 -30.6 -8.5 -62.2 -1.5 -25.7 5.8 -37.8 10.2 -87 32.1 -31.2 13.8 -81.9 40 -93.5 48.2 -3 2.1 -8.2 5.4 -11.5 7.2 -3.3 1.9 -9.1 5.4 -13 8 -3.8 2.5 -9.2 5.9 -12 7.4 -4.7 2.7 -15.5 9.7 -15.5 10.1 0 0.1 5.2 -1 11.5 -2.6 16.9 -4.1 23.8 -4.9 46.5 -5.6 20.5 -0.6 32 0.4 46 3.9 6.7 1.7 23.6 9.3 31 14 30.7 19.5 50.5 64.7 48.5 110.8 -1.8 40.4 -13.9 73.9 -41.5 115.1 -12.4 18.6 -25.2 36 -33.4 45.4 -17.6 20.1 -22.9 25.9 -32.5 35.2 l-10.6 10.2 4.4 0.1 c3.9 0 5 -0.6 12 -6.7z m-254.4 -106.8 c27.4 -2.1 58.5 -8.6 83.8 -17.5 11.4 -4 43.6 -17.4 50 -20.8 l5.2 -2.7 -9 -0.2 c-15.5 -0.5 -54.4 -3.4 -62.9 -4.8 -24.3 -3.9 -50 -16.2 -68.4 -32.5 -15.3 -13.6 -25.3 -27.2 -34.6 -47.1 -12.5 -26.8 -15.7 -43.5 -16.3 -86.1 -0.4 -25.7 -0.3 -30.1 1.7 -42.8 2.1 -13.8 10 -47.4 15.5 -65.6 4.3 -14.2 15 -42.1 21.6 -56.5 5.9 -13.1 24 -47.9 28.6 -55.1 1.3 -2.1 2.1 -3.8 1.8 -3.8 -2.5 0 -35.6 19.2 -47 27.3 -35.6 25.2 -78.1 69 -90 92.7 -1.5 3 -4.9 8.9 -7.6 13.1 -8 12.4 -21 43.2 -25.8 60.9 -5.3 19.8 -11 55.3 -12.6 79.5 -2.3 33.5 12.3 83.4 31.4 107.5 23.4 29.5 51.2 46.5 86.6 52.9 19.1 3.5 21.9 3.6 48 1.6z m195 -56.8 c20.1 -3 47.8 -9.2 63.7 -14.3 23.2 -7.5 62.8 -22.4 62.8 -23.8 0 0 -6.7 0.1 -15 0.2 -20.1 0.5 -34.8 -1 -51 -5.2 -33.8 -8.6 -55.8 -21.3 -71.4 -41.1 -14.8 -18.9 -19.9 -28.7 -26.1 -50.2 -6.4 -22 -7.9 -34 -7.9 -60.8 0 -24.4 1.4 -35.4 7.9 -60.7 7.5 -29.7 12.1 -42.7 22.9 -65.3 21.2 -44.1 52.1 -81.7 96.9 -117.7 7.5 -6.1 13.6 -11.2 13.4 -11.4 -0.5 -0.5 -41.9 14.4 -53.2 19.1 -16.9 7 -53 25.7 -65.5 34 -18.2 12 -30 21.3 -49.3 39 -24.6 22.6 -37.6 36.2 -56.9 59.5 -23 27.8 -35.2 46 -49.7 74.8 -12.6 24.7 -17.2 39.4 -21.7 67.7 -2.3 14.9 -2.5 18.9 -2.1 32.5 0.7 20.7 3.8 32.2 15.1 57.3 6.6 14.7 25.1 36.2 38.7 45.2 8.6 5.7 34.6 16.1 47.4 19 19.4 4.4 31 5.4 62 5 17.2 -0.3 25.7 -0.9 39 -2.8z"/>
 </g>
 <g fill="#00489b">
  <path d="M580.5 1178.4 c-83 -6.3 -153.9 -25.6 -224.6 -61 -170.1 -85 -288.5 -248.8 -315.8 -436.9 -4.6 -31.3 -5.5 -45.4 -5.5 -84.5 0 -39 0.9 -53 5.5 -84.5 21 -146.1 97.4 -278.8 214.1 -372.2 83.7 -67 187.6 -110.3 294.3 -122.7 44 -5.1 94.6 -5.1 137.5 0 65.9 7.8 126.3 25.5 185.6 54.4 25.5 12.4 44.8 23.3 65.4 36.7 142.4 93.5 237.5 245 258.9 412.8 3.7 29 4.5 42.6 4.5 75 0 33.7 -0.9 48.6 -5 79.5 -25.2 188.6 -144 355.5 -314.4 441.4 -66.1 33.4 -133.5 52.9 -209.5 60.6 -10.6 1.1 -80.8 2.2 -91 1.4z m92 -23.9 c45.2 -4.8 82.2 -12.7 123.5 -26.5 128.4 -42.8 237.5 -131.6 306.2 -249 37.9 -64.9 62.5 -137.3 71.7 -211 3.4 -27 4.3 -42 4.3 -72 0 -30 -0.9 -45 -4.3 -72 -10.4 -83.6 -40.4 -164.7 -87.5 -236.3 -36.1 -54.9 -78.8 -100.4 -131.6 -140.3 -79.1 -59.6 -172.8 -97.2 -271.3 -108.8 -41.2 -4.9 -90.6 -4.9 -132 0 -87.5 10.2 -171.7 41.1 -244.5 89.7 -135.7 90.5 -225.3 233.9 -245.9 393.9 -3.6 27.8 -4.5 42 -4.5 73.8 0 58.5 6.9 106.7 23.1 161 19.2 64.8 52.3 129.3 93.7 182.4 21.9 28.1 52.2 60.2 77.1 81.5 92.8 79.6 205.3 125.9 327.5 135 18.4 1.4 76.5 0.5 94.5 -1.4z"/>
  <path d="M578 1132.9 c-167.8 -13.4 -315.9 -100.1 -409 -239.4 -60.6 -90.8 -92.7 -201.6 -89.6 -310 2.3 -82.8 21.5 -159 58.1 -231 26.6 -52.2 57.3 -94.4 99.5 -136.6 44.2 -44.2 86.7 -74.7 142.5 -102.4 63.1 -31.2 129.6 -49.4 200 -54.5 17.9 -1.3 58.1 -1.3 75.5 0 157.6 11.7 299 89 393.7 215.2 33.8 45 63.6 102.5 80.7 155.7 28.8 89.6 33.9 182.2 15.1 274.6 -20.9 102.8 -72.1 197.4 -147.5 272.5 -27 26.9 -49.7 45.6 -81 66.5 -73.7 49.3 -152.9 77.8 -244 88 -17.2 2 -76.3 2.8 -94 1.4z m19 -36.4 c0 -1 -1 -1.5 -3 -1.5 -2.2 0 -3.3 -0.6 -3.9 -2.2 -0.5 -1.3 -0.3 -12.3 0.3 -24.8 l1.1 -22.5 6.2 0 c6.9 0 9.8 1.7 10.8 6.6 1.1 5.1 2.5 3.1 2.5 -3.5 l0 -6.4 -8.2 -0.6 c-4.6 -0.3 -14.9 -0.8 -23 -1.2 l-14.6 -0.6 -0.7 4.4 c-0.4 2.5 -0.5 5.6 -0.3 6.9 0.4 2.2 0.5 2.1 2 -1.3 2.1 -4.6 4.3 -5.8 11.2 -5.8 l5.6 0 -0.1 8.8 c-0.1 16.9 -1.6 38.2 -2.8 39.6 -0.7 0.8 -2.6 1.8 -4.2 2.1 -1.7 0.4 -2.8 0.9 -2.5 1.2 0.2 0.3 5.5 0.8 11.8 1.2 6.2 0.5 11.4 0.9 11.6 1 0.1 0 0.2 -0.6 0.2 -1.4z m55.3 -0.5 c2 0 3.7 -0.4 3.7 -0.9 0 -0.5 -1.2 -0.8 -2.6 -0.8 -4.4 0 -5.6 -2.3 -6.2 -12.1 l-0.5 -8.9 6.3 -10.9 c9.7 -16.7 10.8 -18.3 14.5 -20.1 3.9 -1.9 4.7 -3.9 1.3 -2.9 -1.3 0.3 -5.6 0.6 -9.5 0.6 -7.2 0 -9.6 1.2 -4.8 2.4 1.8 0.5 2.5 1.3 2.5 3.1 0 2.6 -11 22.7 -12.2 22.3 -1.6 -0.6 -14.8 -20.4 -14.6 -21.8 0.2 -0.8 1.7 -2.2 3.3 -3 l3 -1.5 -5 -0.3 c-2.7 -0.2 -8.4 0 -12.5 0.3 l-7.5 0.7 3.7 1.9 c2.7 1.4 6.4 5.7 13.7 15.8 l10 14 0.3 8.9 c0.3 9.8 -0.7 12.2 -4.8 12.2 -1.3 0 -2.4 0.5 -2.4 1.1 0 0.9 2.3 1 8.3 0.6 4.5 -0.4 9.9 -0.7 12 -0.7z m-99.8 -4 c-0.3 -0.5 -1.2 -1 -1.9 -1 -0.7 0 -2.1 -0.9 -3 -1.9 -1.7 -1.9 -1.7 -2.9 0.8 -21.8 1.5 -10.9 2.9 -21 3.2 -22.6 0.7 -3.6 3 -5.7 6.2 -5.7 5.9 0 0 -1.8 -9.6 -2.9 -10.4 -1.2 -13.6 -1 -9 0.8 5 1.9 5 2.2 1.8 26.2 -3.3 24.1 -4 25.9 -9.3 25.9 -5.6 0 -1.7 1.4 7.1 2.6 11.5 1.5 14.5 1.6 13.7 0.4z m-38.5 -6.6 c6.7 -2.7 10 -9.3 8.5 -17 -0.5 -2.9 -2.9 -6 -11.3 -14.6 -9.4 -9.7 -10.6 -11.3 -10.6 -14.4 0 -8.8 11.8 -10 19.3 -2 1.8 1.9 2.6 4.1 2.9 8.1 0.2 3 0.8 5.5 1.2 5.5 0.7 0 5 -15.5 5 -18.1 0 -0.7 -0.8 -0.5 -2 0.6 -1.9 1.7 -2.1 1.6 -6.9 -1.4 -6.4 -4.1 -14 -5.1 -19.1 -2.4 -7.5 3.9 -10.2 13.2 -5.9 20.2 1.1 1.9 5.4 6.6 9.6 10.5 11.1 10.5 12.6 14.5 7.4 19.7 -2.2 2.1 -3.9 2.9 -6.6 2.9 -8.7 0 -14.9 -5.6 -16 -14.5 -0.4 -3.1 -1 -5.3 -1.3 -5 -1.1 1 -4.9 18.5 -4.1 18.5 0.4 0 1.1 -0.4 1.4 -1 1 -1.7 3.8 -1.1 7.6 1.4 6.7 4.6 14.2 5.7 20.9 3z m231.1 -3 c7.6 -2.2 15.1 -10 17.5 -18 4.1 -14.2 -2.3 -30 -15 -36.7 -5.4 -2.8 -17.3 -3 -22.6 -0.3 -6.7 3.5 -9.8 6.6 -12.9 12.7 -9.6 19.2 3.6 43.3 24 43.8 1.9 0.1 6 -0.6 9 -1.5z m-273.3 -7.7 c-2 -1.7 -4.1 -4.2 -4.7 -5.4 -1 -2 -8.1 -23.8 -8.1 -24.9 0 -0.2 2.2 -0.4 4.9 -0.4 8.3 0 13.8 -6.3 12.8 -14.9 -0.8 -7.3 -5.3 -10.7 -21.9 -16.5 -13.2 -4.6 -19.9 -5.8 -13 -2.2 2.2 1.1 3.2 2.4 3.2 4 0 2.9 -13.6 42.4 -15.2 44.4 -0.8 0.9 -2.3 1.2 -4.5 0.9 -6.7 -1.1 -3 1.2 7.5 4.7 5.9 2 11 3.6 11.5 3.6 1.8 0 0.4 -1.7 -2.3 -2.7 -3.9 -1.4 -3.9 -3.2 0.1 -15 l3 -9.2 2.8 1 c2.6 0.9 3.2 2.3 7.6 16.2 l4.7 15.3 5.7 2.1 c3.1 1.2 6.5 2.2 7.6 2.2 1.6 0.1 1.3 -0.5 -1.7 -3.2z m316.4 -7.3 c6 -2 10.8 -4 10.8 -4.5 0 -0.4 -1.3 -0.6 -2.8 -0.3 -1.9 0.4 -3.4 0 -4.4 -1 -2.2 -2.1 -8.3 -20.6 -7.2 -21.6 0.5 -0.4 3.3 -1.5 6.3 -2.5 6 -1.9 9.4 -1.2 10.6 2.5 0.3 1.1 1 1.8 1.5 1.5 0.5 -0.3 -0.5 -4.6 -2.2 -9.5 -1.6 -5 -3.3 -8.8 -3.8 -8.5 -0.4 0.3 -0.6 1.4 -0.3 2.5 0.9 3.4 -2.1 6.4 -7.9 8.3 -3 0.9 -5.7 1.7 -6.1 1.7 -1.1 0 -6.9 -19.2 -6.1 -20 1.5 -1.3 13.7 -5 16.7 -5 1.9 0 3.9 1.1 5.9 3 1.7 1.7 3.2 2.9 3.5 2.7 0.5 -0.6 -3.7 -11.7 -4.5 -11.7 -1.7 0 -37.8 12.4 -38.7 13.3 -0.7 0.6 0 0.8 2.2 0.4 2.2 -0.4 3.8 -0.1 5.1 1.1 2.3 1.9 15.2 40 15.2 44.5 0 2.3 -0.6 3.1 -3 4 -2.7 1 -4.1 2.7 -2.3 2.7 0.5 0 5.6 -1.6 11.5 -3.6z m-371.2 -17.5 c2.3 -2.7 4 -5.2 3.7 -5.5 -0.3 -0.3 -2.3 0.7 -4.6 2.1 -5.5 3.7 -9.2 3.4 -18.7 -1.1 -6.3 -3.1 -7.9 -4.3 -7.7 -5.9 0.1 -1.2 2.1 -6.2 4.5 -11.2 l4.3 -9.1 7 3.2 c8.6 4 9.9 5.5 9.1 10.1 -1.2 6 0.9 3.8 5.2 -5.5 4.2 -9.3 4.2 -10.9 -0.2 -6.5 -2 2 -3.2 2.4 -5.3 1.9 -2.7 -0.7 -14.3 -6.1 -14.3 -6.7 0 -0.2 1.3 -3 2.8 -6.3 1.6 -3.2 3.4 -7.4 4.1 -9.1 0.8 -1.8 1.8 -3.3 2.5 -3.3 0.6 0 5 1.9 9.7 4.1 9.3 4.4 10.9 6.3 10.2 11.7 -0.3 1.7 -0.1 3.2 0.3 3.2 0.8 0 5.7 -11.1 5.1 -11.5 -1.3 -1 -38.1 -17.5 -38.9 -17.5 -0.6 0 0.4 1.3 2.1 2.9 3.7 3.5 4.3 1.3 -7.7 27.5 -9 19.5 -10.3 21.2 -14.9 19.5 -1.2 -0.4 -2.5 -0.5 -2.7 0 -0.6 0.8 35.9 17.9 38.5 18 0.9 0.1 3.5 -2.2 5.9 -5z m460.8 -24.5 c11.1 -6.5 10.7 -6.2 10 -6.9 -0.3 -0.3 -1.8 -0.1 -3.3 0.5 -2.5 0.9 -3.2 0.8 -5.1 -1.2 -2.5 -2.6 -23.4 -38.1 -23.4 -39.7 0 -1.3 9.3 -6.1 11.9 -6.1 1.1 0 3.3 1.1 4.9 2.5 1.6 1.3 3.2 2.2 3.5 1.9 0.7 -0.7 -6.3 -11.5 -7.2 -11 -0.3 0.2 -9.3 5.4 -19.8 11.6 l-19.3 11.2 3.2 5.8 c3.4 6 5.5 7.2 3.7 2 -1.5 -4.1 0.6 -7.8 6.3 -11.2 l4.8 -2.7 1.4 2.2 c8 12.8 22.6 38.6 22.6 39.9 0 0.9 -1.1 2.5 -2.5 3.6 -2.4 1.9 -3.2 3.2 -1.9 3.2 0.3 0 4.9 -2.5 10.2 -5.6z m-516 -20.2 c26.7 -20 25.9 -19.5 29.8 -19.4 1.9 0.1 3.4 -0.2 3.4 -0.6 0 -0.4 -3.3 -2.6 -7.3 -4.9 -7 -4.1 -9.7 -4.2 -6.1 -0.2 1.4 1.5 1.6 2.4 0.8 3.7 -1.4 2.3 -31.8 25.4 -32.2 24.4 -0.1 -0.4 0.9 -9.2 2.2 -19.6 2.7 -20.5 3.8 -23.3 8.2 -21.6 1.3 0.5 2.6 0.5 2.9 0.1 0.5 -0.9 -17.7 -12.1 -19.7 -12.1 -0.6 0 -0.1 1.1 1.2 2.5 3 3.2 3 3.1 -0.9 34.1 -3.2 24.6 -3.5 28.4 -2.6 28.4 0.3 0 9.4 -6.7 20.3 -14.8z m560 -11.1 l16.9 -12.3 -2 -6.9 c-1.1 -3.8 -2.4 -6.9 -2.9 -6.9 -0.4 0 -0.8 2.6 -0.8 5.8 0 3.5 -0.6 6.6 -1.5 7.9 -1.7 2.4 -14.8 12.3 -16.3 12.3 -0.9 0 -14.2 -17.2 -14.2 -18.5 0 -0.3 2.7 -2.5 6.1 -5 6.5 -4.8 10.1 -5.6 13.1 -2.8 4.1 3.7 2.7 -0.1 -2.7 -7.4 -3.2 -4.2 -6 -7.2 -6.2 -6.6 -0.3 0.7 0 2 0.6 3.1 0.5 1 0.7 2.8 0.4 4 -0.5 2 -9.4 9.5 -12.7 10.8 -1 0.4 -3.3 -1.9 -6.9 -6.8 -2.9 -4 -5.7 -7.9 -6.1 -8.5 -0.9 -1.6 14.7 -13.3 17.9 -13.3 1.2 0 3.4 1 4.9 2.1 1.5 1.2 3 1.9 3.3 1.5 0.6 -0.6 -6.3 -9.6 -7.4 -9.6 -0.3 0 -7.8 5.3 -16.6 11.8 -8.8 6.4 -16.5 12 -17.1 12.4 -2.2 1.4 0.2 1.8 2.9 0.4 3.4 -1.8 4.6 -1.4 7.6 2.7 18.8 25.4 24.9 34.2 24.9 35.8 0 1 -0.9 2.8 -2 3.9 -2.1 2.1 -2.6 3.4 -1 2.8 0.5 -0.1 8.5 -5.9 17.8 -12.7z m-608.8 2.1 c0 -0.5 -0.9 -1.7 -2 -2.7 -1.1 -1 -2 -2.6 -2 -3.5 0 -2.4 27.2 -38.4 29.4 -38.8 1 -0.2 2.9 0.2 4.2 0.9 1.3 0.7 2.6 1 2.9 0.7 0.3 -0.3 -3.8 -3.8 -9.1 -7.7 -5.2 -4 -9.8 -7 -10.1 -6.8 -0.2 0.3 0.5 1.9 1.7 3.5 2.8 3.7 3.2 3 -13.1 25 -10.2 13.6 -13.3 17.2 -15.2 17.2 -1.3 0 -2.8 -0.5 -3.4 -1.1 -0.6 -0.6 -1.7 -0.9 -2.3 -0.7 -0.7 0.2 3 3.6 8.1 7.5 9.4 7.2 10.9 8.1 10.9 6.5z m331.5 -3.2 c47.6 -3.5 88.9 -13.5 131.6 -32 109.7 -47.5 193.4 -143.7 224.9 -258.7 4.8 -17.5 9.2 -39.8 11.7 -58.8 2.5 -19.6 2.5 -76 0 -95 -7.9 -58.8 -25 -109 -53.4 -156.5 -59.2 -98.7 -156.8 -166.6 -269.3 -187.4 -26.7 -4.9 -40.3 -6 -72.5 -6 -38.8 0 -62.9 2.7 -96.5 11.1 -91.2 22.6 -172.4 77.8 -227.2 154.3 -67.4 94 -90.4 212.7 -63.3 325.7 16.4 68.2 51.8 132.4 101 183.1 65 67 149.8 108.6 242 118.7 23.8 2.5 48.9 3.1 71 1.5z m-339 -45.8 c12.3 -13.4 12.7 -13.7 16.6 -11.7 1.7 0.9 3.3 1.4 3.5 1.2 0.3 -0.3 -2.8 -3.4 -6.7 -7.1 -7.5 -6.8 -9.3 -7.7 -6.3 -3.1 1.3 2 1.5 3.3 0.8 5 -0.9 2.3 -21.9 25.6 -23.7 26.4 -0.6 0.2 -0.7 -1.8 -0.4 -5 0.4 -3 1.2 -14.9 1.8 -26.4 l1.2 -21.1 -5.4 -5.1 c-5.5 -5.2 -8.6 -6.2 -4.9 -1.6 1.1 1.4 2 4.1 2 6 0 3 -1.8 5.3 -14.7 19.4 -8 8.7 -15.1 16 -15.7 16 -2.3 0.3 -4.2 -0.3 -5.8 -1.8 -1 -0.9 -1.8 -1.2 -1.8 -0.7 0 1.4 12.3 13.4 13.8 13.4 0.8 0 0.6 -0.9 -0.9 -2.9 -1.8 -2.4 -1.9 -3.2 -0.9 -5.1 1.3 -2.5 25.1 -28.3 25.6 -27.8 0.1 0.2 -0.4 10.5 -1.1 22.8 -0.8 12.4 -1.4 25.4 -1.4 29 l0 6.5 7.7 -8.3 c4.2 -4.5 11.8 -12.6 16.7 -18z m653.5 13.3 c12.1 -4.3 19.8 -17 17.6 -28.9 -0.9 -4.9 -2.8 -4.7 -2 0.2 0.8 5.4 -1.2 11.7 -5.2 16.2 -8 8.8 -18.7 9.4 -29.2 1.3 -5.5 -4.1 -11.9 -13.7 -13.2 -19.6 -1.1 -4.8 -1 -5.8 1.1 -10.6 4.1 -9.7 15 -13.9 24.4 -9.4 5.5 2.6 5.2 0.8 -0.6 -4.5 -5.4 -5 -5.4 -5 -3.5 -7.1 1.1 -1.2 2.7 -2.1 3.7 -2.1 2.8 0 39.3 25.1 40.3 27.7 0.3 0.8 -0.1 2.7 -0.9 4.4 -3.2 6.1 0.5 2.5 6.9 -6.7 6.6 -9.5 7.9 -12.9 3.3 -8.6 -1.3 1.2 -3 2.2 -3.9 2.2 -1.8 0 -18.7 -11.1 -18.8 -12.3 0 -0.8 12.8 -19.4 13.9 -20.1 1.3 -0.8 17.9 11.3 18.6 13.5 0.4 1.2 0 3.1 -1 4.6 -1.2 1.8 -1.3 2.4 -0.4 2.1 1.8 -0.6 14.3 -18.7 13.5 -19.5 -0.4 -0.4 -1.3 0.3 -2.2 1.5 -0.8 1.2 -2.6 2.2 -3.8 2.2 -2.3 0 -33.6 -20.8 -38.5 -25.5 -2.1 -2.1 -2.2 -2.6 -1.2 -5.6 0.6 -1.8 0.9 -3.4 0.7 -3.6 -0.2 -0.3 -3.4 3.9 -7.1 9.2 -3.7 5.3 -6.4 9.9 -6.1 10.2 0.3 0.4 1.5 -0.3 2.6 -1.5 1.2 -1.2 2.7 -2.2 3.4 -2.2 1 0 12.2 6.9 18 11.1 0.5 0.4 -2.4 5.4 -6.4 11.2 l-7.2 10.6 -7.2 -4.8 c-10.8 -7.4 -11.5 -8.5 -9.1 -14.3 1.8 -4.5 -1.6 -0.9 -7.4 7.6 -4.1 6.1 -6.8 9.3 -7.7 8.9 -1 -0.4 -1.4 0.3 -1.4 2.4 0 2.6 -0.6 3.2 -5.5 5.2 -6.5 2.7 -13.6 10 -15.3 15.9 -1.6 5.4 -1.5 15.5 0.3 19.8 6.5 15.6 22.4 23.9 36.5 18.9z m-709.9 -45.2 c2.4 -1.7 9 -7.2 14.6 -12.1 5.7 -5 11.1 -9.6 12.2 -10.2 2.3 -1.2 6.6 0.1 7.4 2.2 0.2 0.7 0.8 1 1.2 0.6 0.7 -0.7 -0.7 -2.5 -9.7 -13.1 -1.4 -1.8 -3 -2.9 -3.4 -2.4 -0.4 0.4 0 1.5 0.9 2.5 3.3 3.6 2.1 5.6 -9.5 15.8 -6.2 5.5 -13 11.3 -15 12.8 -4.8 3.6 -10.4 4.4 -14.9 2.1 -9.9 -5 -13.5 -13.6 -8.8 -21.1 2 -3.4 22.8 -22.4 28.2 -25.9 2.7 -1.8 2.9 -1.8 5.8 0.4 5.4 4 4.1 1.6 -4.2 -7.8 -7.6 -8.7 -11.3 -11.4 -7.5 -5.6 0.9 1.4 1.4 3.4 1.1 4.4 -0.3 1 -6.4 6.9 -13.6 13.2 -14.6 12.8 -17.9 17.2 -17.9 24.3 0 7 5.1 15.4 12.5 20.3 6.3 4.3 14 4.1 20.6 -0.4z m790.9 -57.8 c0 -0.5 -1.2 0.3 -2.6 1.8 -1.9 2 -3.3 2.7 -4.8 2.3 -3 -0.8 -33.6 -16.9 -33.1 -17.5 0.3 -0.2 12.7 -3 27.7 -6 14.9 -3.1 27.3 -6.1 27.5 -6.6 0.1 -0.6 -9.7 -6.2 -21.9 -12.5 -12.1 -6.3 -22.7 -12.5 -23.5 -13.7 -1.1 -1.6 -1.2 -2.7 -0.4 -4.2 1.3 -2.4 1.4 -3.1 0.3 -3.1 -1.2 0 -9.5 16 -8.7 16.8 0.3 0.4 1.1 -0.1 1.6 -1 2.5 -4.5 4.1 -4.1 19.6 3.8 8.1 4.2 15.4 8.2 16.1 8.7 1 0.8 -5.3 2.5 -24.4 6.4 -14.2 2.9 -25.8 5.4 -25.9 5.6 -0.1 0.1 -1.9 3.2 -3.9 7 -3.9 6.9 -3.7 8.6 0.3 4.3 5.1 -5.5 6 -5.3 26.6 5.5 10.4 5.4 19.6 10.6 20.4 11.4 1.2 1.2 1.3 2.1 0.4 4.4 -0.6 1.7 -0.8 3.2 -0.5 3.6 0.6 0.6 9.2 -15.3 9.2 -17z m-836.3 -35.6 c10.1 -5.5 19.4 -9.9 20.7 -9.9 1.5 0 3 0.8 3.6 2 0.6 1.1 1.5 2 2.1 2 1.3 0 -7.4 -16.3 -8.9 -16.8 -0.7 -0.2 -0.7 0.8 0.1 2.8 0.8 2.1 0.8 3.6 0.1 4.7 -0.7 1.2 -30.7 18.3 -32 18.3 -0.2 0 2.6 -7.1 6.2 -15.7 3.6 -8.7 8.1 -19.8 10.1 -24.7 l3.6 -8.9 -3.4 -6.4 c-1.9 -3.4 -3.7 -6.3 -4 -6.3 -0.3 0 -0.4 2.1 -0.1 4.8 0.3 3.6 0 5.2 -1.4 6.9 -2.2 2.5 -37.1 21.3 -39.7 21.3 -0.9 0 -2.4 -1.1 -3.3 -2.5 -0.9 -1.4 -2.1 -2.5 -2.6 -2.5 -0.5 0 1.2 4 3.8 8.9 4.6 8.5 7.5 11.5 5.1 5.2 -0.8 -2.2 -0.8 -3.3 0.2 -4.5 1.3 -1.6 33.1 -19 33.6 -18.4 0.1 0.2 -4.6 12 -10.5 26.3 -5.9 14.3 -10.5 26.3 -10.3 26.7 0.5 0.9 2.8 -0.3 27 -13.3z m853.3 -14.4 c14.7 -5.2 21.8 -23.1 14.7 -37.1 -7.3 -14.4 -26.6 -21.2 -40.2 -14.2 -9.9 5.1 -14.4 12.8 -14.5 24.4 0 5.6 0.5 8.1 2.6 12.2 6.3 12.6 23.8 19.5 37.4 14.7z m-899.9 -31.2 c1.3 -1.4 11.5 -9.7 22.7 -18.5 11.1 -8.7 20.2 -16.3 20.2 -16.8 0 -1.1 -1.9 -1.5 -28.5 -5 -26.7 -3.6 -30.1 -4.4 -31.5 -7 -0.6 -1.1 -1.5 -2 -2 -2 -1.2 0 3.3 16.3 4.7 16.7 0.6 0.2 0.8 -0.6 0.5 -2.3 -0.3 -1.6 0.1 -2.9 0.9 -3.5 1.6 -1 6.8 -1.1 12 -0.3 l3.6 0.6 2.8 10.2 2.7 10.1 -4.4 3.8 c-5.7 5 -8.6 5.7 -11 2.7 -3.3 -4.1 -3.2 -3 2.4 16.5 l1.1 4 0.7 -3.3 c0.4 -1.8 1.8 -4.5 3.1 -5.9z m927.8 -22.5 c2.6 -8.4 10.1 -36 10.1 -37.3 0 -1.6 -11.9 -9.9 -12.8 -9 -0.3 0.3 0.8 2 2.6 3.8 3.8 3.9 5.4 8 4.6 11.5 -1.9 8.6 -4.6 16.1 -5.9 16.6 -1.8 0.6 -43.3 -10.8 -44.9 -12.4 -0.6 -0.6 -1 -2.8 -0.9 -5 0.3 -6.8 -1.1 -4.5 -4.1 6.8 -1.6 5.9 -3.1 11.3 -3.4 12 -0.8 2.1 1.3 1.3 2.3 -1 2 -4.4 3.1 -4.3 26.3 2.2 12.2 3.4 22.6 6.8 23.3 7.6 0.6 0.8 0.9 2.7 0.7 4.4 -0.6 4 0.8 3.8 2.1 -0.2z m-948 -39.2 c1.1 -1 9.2 -2.8 24 -5.2 21.3 -3.5 22.3 -3.5 24.2 -1.8 1 0.9 1.9 2.5 1.9 3.6 0 1 0.5 1.8 1.1 1.8 0.7 0 0.9 -1.2 0.6 -3.2 -0.3 -1.8 -1.1 -6.9 -1.8 -11.3 -1.2 -8.4 -2.9 -12.2 -2.9 -6.8 0 4.5 -2 5.9 -9.7 7.2 -3.7 0.7 -8.2 1.4 -10 1.7 -3.5 0.7 -3.1 1.7 -5.8 -14.4 -0.9 -5.1 -1.3 -9.7 -1 -10.1 0.2 -0.5 5 -1.5 10.6 -2.2 10.1 -1.3 10.2 -1.3 12 1 1.1 1.3 1.9 3 1.9 3.8 0 0.8 0.4 1.2 0.9 0.9 0.4 -0.3 0 -5.4 -1 -11.3 -1.1 -5.9 -1.9 -11.1 -1.9 -11.5 0 -0.5 -0.4 -0.8 -1 -0.8 -0.5 0 -1 1.5 -1 3.4 0 1.9 -0.5 3.8 -1.2 4.2 -2.5 1.6 -45.3 8.2 -47 7.3 -1 -0.5 -2.4 -2.2 -3.2 -3.7 -2 -3.6 -2 -1.6 0.1 10.8 1.5 9.6 3.3 13.3 3.3 7 0 -4 2.7 -5.5 12.5 -6.9 4.4 -0.7 8.7 -1.4 9.6 -1.7 1.4 -0.4 1.9 1.3 3.3 10.8 1 6.2 1.9 12 2.2 12.9 0.4 1.4 -1.4 1.9 -10.6 3.4 -10.6 1.7 -11.1 1.7 -13 0 -1.1 -1 -2 -2.6 -2 -3.7 0 -1 -0.5 -1.8 -1.1 -1.8 -0.6 0 -0.8 1.1 -0.5 2.8 0.3 1.5 1 6.1 1.6 10.2 1.5 10 2.4 12.5 2.8 8.4 0.2 -1.8 1.1 -3.9 2.1 -4.8z m950.8 -18.1 c8.9 -3.7 14.3 -10.3 16.2 -19.7 1.5 -6.8 0.7 -11.7 -2.7 -18.2 -5.3 -9.9 -14.9 -15 -27.7 -15 -25.5 0.2 -36.8 30.6 -17.7 47.5 2.4 2.1 6.2 4.4 8.5 5.3 5.7 2 18.8 2 23.4 0.1z m-910.5 -49.7 c-0.5 -8.3 -2 -15.3 -2.1 -9.7 -0.2 5.6 -1.4 6.1 -19.9 7.7 -9.3 0.8 -18.6 1.2 -20.5 0.8 -13.7 -2.6 -17.4 -24.1 -5 -29.2 2.1 -0.9 11.1 -2.2 21.5 -3.1 16.9 -1.4 18.1 -1.3 19.9 0.3 1 0.9 1.9 2.8 1.9 4.1 0 1.2 0.5 2.3 1 2.3 1.2 0 0.2 -21.6 -1.1 -24.2 -0.5 -0.9 -0.6 -4.9 -0.3 -8.8 0.5 -5 0.4 -7 -0.5 -7 -0.6 0 -1.1 0.6 -1.1 1.4 0 2.3 -2.8 4.5 -5 3.9 -6.6 -1.7 -35.2 -13.2 -34 -13.7 11.2 -3.9 33.7 -10.6 35.6 -10.6 1.9 0 2.9 0.8 3.9 3.3 l1.4 3.2 0.1 -4.5 c0 -2.5 0.3 -7.5 0.7 -11.2 0.4 -4.8 0.3 -6.8 -0.6 -6.8 -0.6 0 -1.1 0.6 -1.1 1.3 0 2.4 -4.3 5.4 -10 7.1 l-5.5 1.7 -12.5 -5 c-6.9 -2.7 -11.8 -5.2 -11 -5.5 11.6 -4.1 34.4 -10.7 36.2 -10.4 1.5 0.2 2.4 1.1 2.6 2.6 0.2 1.2 0.8 2.2 1.3 2.2 0.5 0 0.9 -4 0.9 -8.9 0 -4.9 0.3 -9.6 0.6 -10.5 0.3 -0.9 0.2 -1.6 -0.3 -1.6 -0.5 0 -1.4 1.3 -2 2.9 -1 2.8 -2.4 3.4 -28.2 11.8 -14.9 4.8 -27.1 9.3 -27.1 9.9 0 0.6 7.4 4 16.5 7.5 9.1 3.4 16.5 6.6 16.5 6.9 0 0.3 -7.6 3 -17 6 -9.3 2.9 -17 5.8 -17 6.5 0 0.6 10 4.9 22.3 9.5 31.4 11.8 30.5 11.4 32.3 15.6 1.7 4 1.1 6.9 -1.5 8.4 -1 0.5 -9.7 1.6 -19.3 2.4 -19 1.6 -23 2.7 -27.1 7.5 -7.5 8.9 -5.3 27.4 4 33.7 4.4 3 10 3.6 22.3 2.4 21.3 -1.9 27 -1.1 27 4.2 0 1 0.4 1.8 0.8 1.8 0.5 0 0.7 -3.7 0.4 -8.2z m917.3 -12.2 c5.2 -2.2 12 -9.1 14.4 -14.5 3 -7.1 3.7 -17.2 1.7 -25.1 -0.9 -3.5 -1.9 -6.6 -2.1 -6.9 -0.3 -0.2 -5.6 -0.8 -11.7 -1.2 -11.5 -0.8 -13.8 -1.7 -13.8 -5.8 0 -0.9 -0.3 -1.1 -0.9 -0.5 -1.1 1.2 -2.2 20.4 -1.1 20.4 0.4 0 1.1 -1.1 1.4 -2.5 0.8 -3.2 3.5 -3.8 14.7 -3.3 10.1 0.5 10.5 0.7 11.5 7.6 2.5 16.6 -16.6 28.6 -36.2 22.7 -19.2 -5.7 -22.1 -28.8 -4.6 -36.7 2.3 -1 4.2 -2.1 4.2 -2.3 0 -0.3 -4 -0.5 -9 -0.5 -5.3 0 -9 0.4 -9 1 0 0.6 0.7 1 1.5 1 2 0 1.9 1.9 -0.6 9.3 -5.9 17.3 4.1 34.9 22.1 38.8 4.6 1 13.3 0.2 17.5 -1.5z m-20.8 -72.4 c7.1 -4.9 13.8 -9.4 15 -10 2.6 -1.4 17.2 -1.6 19.3 -0.2 0.8 0.5 2 2.4 2.7 4.2 1 2.9 1.2 1.8 1.2 -8.9 0.1 -7.6 -0.3 -12.3 -0.9 -12.3 -0.5 0 -1 1 -1 2.3 0 4.5 -1.4 5.2 -11.7 5.7 l-9.8 0.5 -11.5 -6.8 c-14.7 -8.7 -18 -11.3 -19.2 -14.8 -1.7 -4.9 -3.1 -3.5 -2.4 2.4 0.3 2.8 0.6 7.2 0.6 9.7 l0.1 4.5 1.5 -2.7 c0.9 -1.7 2.3 -2.8 3.6 -2.8 1.7 0 22.8 11.5 22.8 12.5 0 0.1 -5 3.5 -11.1 7.6 -8.8 5.8 -11.4 7.1 -12.7 6.2 -1 -0.5 -1.8 -2 -2 -3.2 -0.2 -1.1 -0.8 -2.1 -1.4 -2.1 -0.8 0 -0.9 2.9 -0.4 9.2 0.3 5 0.6 10.5 0.6 12.2 l0.1 3.1 1.9 -3.7 c1.4 -2.7 5.5 -6.2 14.7 -12.6z m-850.4 -121.2 c3.7 -1.6 4.8 -2.8 5.8 -5.8 1.6 -4.8 2.5 -20.1 2.4 -43.4 0 -10.4 0 -18.8 0 -18.8 1.8 0 15.4 3.5 20 5.2 7.5 2.7 9.8 2 10.3 -3.1 0.3 -2.7 -0.9 -4.5 -9.7 -14.4 -5.5 -6.2 -11.8 -12.3 -14 -13.5 -4.2 -2.4 -10.1 -3 -10.1 -1 0 0.7 3 4.3 6.7 8 7.4 7.5 7.2 8 -3 5.3 -6.5 -1.7 -15.9 -6.3 -19.9 -9.7 -2.6 -2.2 -2.7 -2.5 -1.6 -6.6 1.1 -3.9 1 -4.4 -0.9 -6.4 -1.8 -1.8 -2.4 -1.9 -3.7 -0.8 -0.9 0.7 -1.6 2.3 -1.6 3.6 0 1.2 -0.5 2.6 -1 2.9 -1.5 0.9 -11.7 -6.9 -13.4 -10.3 -0.8 -1.5 -3.9 -5.1 -6.9 -8 -4.8 -4.4 -6.2 -5.2 -9.5 -5.2 -2.9 0 -4.5 0.7 -6.6 2.9 -1.5 1.6 -2.6 3.7 -2.4 4.7 0.2 1 4.3 4.3 9.4 7.4 4.9 3 12.7 8.6 17.2 12.4 9.6 8.1 9.7 8.5 5.7 21.1 -1.4 4.4 -4.1 14.5 -6 22.5 -1.9 8 -4.1 16.8 -5 19.6 -1.8 6.2 -1.8 6.4 -0.1 6.4 2 0 10.4 -3.9 11.2 -5.2 1.3 -2 1.4 -12 0.2 -14.2 -0.8 -1.5 -0.8 -2.1 0.1 -2.4 0.7 -0.2 1.7 -1.5 2.2 -2.9 1.4 -3.7 3.9 -2.5 7.8 3.5 2.8 4.2 3.9 5.2 6.2 5.2 4.8 0 6.4 -6.2 3.4 -13.3 -1.5 -3.7 -2 -8.7 -0.9 -8.7 2.1 0 7.5 4.6 8 6.7 1.5 5.9 -2.1 36.4 -5.6 47.1 -2.5 7.9 -2.9 9.5 -2.4 10.3 0.8 1.4 2.7 1.1 7.7 -1.1z m788.6 -22.3 c10.8 -10.4 18.6 -16.7 20.5 -16.7 2.7 0 3.1 2.9 0.7 5.4 -1.1 1.2 -2.1 2.8 -2.1 3.4 0 1.7 9.9 9.2 11.4 8.6 2.2 -0.8 2.8 -8.8 1 -14 -0.8 -2.5 -1.3 -4.8 -1 -5.1 0.2 -0.3 3.2 0.8 6.6 2.3 7 3.1 7.5 2.9 8.6 -4.3 0.4 -2.8 1.1 -4.3 2 -4.3 2.7 0 7.9 2.7 12.2 6.4 2.4 2 4.9 3.6 5.5 3.6 0.5 0 2.5 -1.1 4.2 -2.5 3.9 -2.9 4.9 -7 3.6 -13.9 -0.7 -4.1 -1.7 -5.6 -5.7 -9 -2.7 -2.3 -6.2 -5.3 -7.9 -6.9 l-3 -2.7 2.8 0.6 c4.3 1 5.7 -1 5.7 -7.8 0 -6.4 -1.2 -7.8 -5 -5.8 -3.3 1.8 -5.7 0.3 -7.2 -4.3 -1.8 -5.7 -4.2 -5.6 -4.6 0.1 -0.3 3.6 -0.6 4.2 -2.5 4.2 -4.8 0 -5.3 -1.3 -3.4 -8.7 0.9 -3.7 1.7 -9.5 1.7 -12.8 0 -10.2 -3 -11.4 -4.5 -1.8 -0.6 4.2 -5 15.3 -6 15.3 -0.3 0 -0.3 -2.6 0 -5.9 0.3 -4 0 -6.4 -0.9 -7.7 -1.4 -1.8 -1.5 -1.7 -2.7 1.1 -0.6 1.7 -3.1 7 -5.5 11.8 -4.4 8.8 -5.4 13 -3.3 14.2 0.5 0.4 1.8 0 2.8 -0.9 2.7 -2.5 3.1 -2 3.1 3.9 0 5.1 0.2 5.5 2.4 5.5 1.9 0 3.1 -1.2 5.5 -5.5 l3.1 -5.4 3.2 1.3 c3.5 1.5 4.9 3.6 2.4 3.6 -0.8 0 -3.1 0.8 -5.1 1.7 -3.9 1.9 -5.1 4.6 -4.1 9.4 2 10.4 12.8 13 16.6 4 1.6 -3.9 3.6 -3.9 7.7 0.1 6.4 6.2 4.1 8.8 -8 8.8 l-9 0 -7.1 -5.5 c-3.9 -3 -9.2 -7.5 -11.8 -10 -6 -5.7 -8.3 -6 -7.3 -0.7 0.8 4.6 2.1 6.1 10.1 11.3 8.8 5.7 8.4 7.9 -1.3 7.9 -3.9 0 -5.3 -0.7 -10.4 -4.7 -16.5 -13.2 -23.6 -19.4 -25.7 -22.2 -2 -2.7 -2.6 -3 -3.9 -1.9 -1.3 1 -1.5 2.8 -1 9.5 0.3 4.5 1.1 9 1.8 10.1 0.7 1.1 4.6 3 9.8 4.7 9.3 3 15.6 5.8 16.6 7.6 0.4 0.6 -0.4 2.2 -1.6 3.6 -4.2 4.5 -17.7 14.3 -19.8 14.3 -2.2 0 -5.6 -4.2 -7.3 -9 -0.6 -1.8 -1.4 -2.8 -1.9 -2.3 -1.2 1.2 2.7 20 4.7 23.1 2.6 4 5.9 2.9 14.3 -5.1z m-795.9 -2.1 c2 -7.3 0.4 -9.7 -7.7 -11.1 -4.7 -0.7 -5.5 0.3 -2.9 4 0.7 1.1 2.1 4.3 3 7.2 2.6 7.8 5.4 7.8 7.6 -0.1z m-28 -46.1 c2.3 -2.5 4.4 -13.2 3.5 -17.6 -0.7 -3.1 -3.3 -4.4 -7.1 -3.5 -2 0.5 -2.4 1.3 -2.4 4.2 0 1.9 -1.2 7.5 -2.6 12.4 -1.4 5 -2.2 9.4 -1.9 10 0.8 1.2 7.5 -2.3 10.5 -5.5z m23 -44 c0.7 -0.9 1.3 -3.7 1.2 -6.3 0 -3.7 -0.5 -5.1 -2.7 -6.9 -5.1 -4.4 -14.5 -2.3 -14.5 3.3 0 1.9 0.8 2.5 4 3.4 2.6 0.7 4.9 2.3 6.6 4.5 3 3.9 3.6 4.2 5.4 2z m709 -23.7 c0 -0.6 -1.6 -4.4 -3.5 -8.5 -1.9 -4.1 -3.5 -8 -3.5 -8.7 0 -0.7 -0.3 -1.6 -0.7 -1.9 -1.1 -1.2 -1.2 -10.7 -0.2 -21.5 0.7 -7 0.6 -10.8 -0.1 -12.2 -1.2 -2.2 -4 -1.7 -4 0.7 0 0.8 -1.1 4.7 -2.4 8.6 -6.1 17.9 -7.7 24.8 -7 29.2 0.6 4.1 1.1 4.7 7.1 8.5 3.5 2.2 6.8 4 7.2 4 0.5 0 1.4 0.7 2.1 1.5 1.5 1.8 5 2 5 0.3z m-577 -9.7 c1.7 -3.2 1.3 -4.5 -5 -17.5 -3.3 -6.9 -6 -13 -6 -13.8 0 -0.7 -1.3 -4.1 -2.9 -7.5 -1.7 -3.4 -4 -9.9 -5.2 -14.3 -2.2 -8.4 -3.7 -10.6 -4.6 -7.1 -0.6 2.5 -1 2.5 -4.3 0.6 -3.3 -1.9 -7.6 -1.9 -8.4 0 -0.3 0.9 1.1 4 3.3 7.3 2.1 3.1 5 8.9 6.4 12.7 1.4 3.9 4.5 11.1 7 16 2.5 5 5.2 11.8 6.1 15 1 3.9 2.4 6.8 4.1 8.3 3.3 2.8 8 2.9 9.5 0.3z m17 -45.5 c0 -3.9 -0.5 -8.8 -1.1 -11 -0.9 -3.4 -0.8 -4.4 1.6 -9 3.1 -5.9 5.1 -17.7 3.4 -20.7 -1.3 -2.6 -3.2 -2.4 -6.8 0.7 -3.3 2.8 -3.8 4.9 -1.7 7.7 1.3 1.7 1 6.7 -0.4 6.7 -1.2 0 -1.7 -2 -2.5 -9.6 -0.7 -6.5 -1 -7.2 -5.1 -11 -4.1 -3.9 -4.3 -4.2 -3.2 -7.1 1.8 -4.7 0 -9.7 -3.6 -10.1 -1.6 -0.2 -3.6 0.4 -4.6 1.3 -1 0.9 -2.3 1.4 -2.9 1.1 -1.8 -1.1 -3.1 -8.1 -2.5 -12.9 1.4 -10 -2.4 -18.7 -8.2 -18.7 -3.7 0 -4 2.6 -1.1 8.6 2.5 5 3.6 11.4 2 11.4 -0.3 0 -1.4 -0.7 -2.3 -1.5 -1.8 -1.7 -5 -1.1 -5 0.9 0 0.7 1.4 2.5 3 4.1 3.9 3.7 3.8 4.5 -0.5 3.8 -4.3 -0.7 -4.5 0.7 -1 7.3 1.4 2.6 2.5 6.1 2.5 7.9 0 3.3 -2.7 12.3 -4.1 14 -0.5 0.5 -0.9 1.9 -0.9 3.2 0 3 3.7 3.1 7.3 0.3 1.4 -1.1 3.1 -1.8 3.9 -1.5 2.1 0.8 6.8 14.4 6.8 19.6 0 5.2 1.3 6.9 5.1 6.9 3.3 0 4.1 -1.2 4.9 -6.5 0.6 -4.6 3.2 -5.9 5 -2.5 0.9 1.7 0.7 2.9 -0.9 6.4 -1.2 2.3 -2.1 5 -2.1 5.9 0 2.4 1.9 3.1 3.9 1.3 3.6 -3.3 5.4 -1.4 6.6 6.9 0.9 6.3 1.5 7.3 3.2 5 0.8 -1.2 1.3 -4.6 1.3 -8.9z m534 5.7 c2.5 -0.9 7.8 -3.4 11.7 -5.5 l7.3 -3.9 5.2 1.7 c5.1 1.6 9.1 3.3 17.1 6.9 4.5 2.1 5.6 1.3 5 -3.6 -0.7 -5.4 -4.9 -9.5 -10.7 -10.3 -2.6 -0.4 -5 -1.4 -5.3 -2.2 -0.6 -1.5 6.7 -9 12.9 -13.1 2.1 -1.4 4 -3.5 4.4 -4.7 1.1 -3.1 0.5 -21.5 -0.7 -23.7 -0.9 -1.8 -1.1 -1.8 -4.4 0.8 -1.9 1.6 -3.5 3.2 -3.5 3.6 0 4.2 -22 29.7 -25.6 29.7 -3 0 -22 -9.8 -26.9 -13.8 -6.5 -5.5 -7.9 -5.5 -7.2 0.1 0.3 2.3 0.9 6.7 1.3 9.6 0.9 7.3 4 10.5 11 11.5 5.1 0.6 10.8 3.5 7.2 3.6 -0.9 0 -1.8 0.6 -2.1 1.3 -0.5 1.5 -20 1.3 -21.9 -0.2 -2.1 -1.8 -13.1 -7.2 -13.5 -6.7 -1 0.9 5.1 9.8 9 13.2 7 6.1 13.3 8.6 19.7 7.9 3 -0.3 7.5 -1.3 10 -2.2z m-521 -5.9 c0.8 -1.4 2.7 -3.5 4.2 -4.6 3 -2.1 3.7 -6.2 1.8 -9.7 -1.3 -2.6 -10.4 -6.3 -13.4 -5.5 -4.9 1.2 -5.1 3.1 -0.7 6.1 4.7 3.3 6.1 6.6 5.4 12.2 -0.6 4.7 0.7 5.4 2.7 1.5z m-68 -17.6 c0 -0.2 -0.7 -2.8 -1.5 -5.8 -0.8 -3 -1.5 -6.9 -1.5 -8.7 0 -4.8 -1.8 -7.9 -6.2 -10.8 -7 -4.6 -10.6 -1.8 -5.6 4.4 1.1 1.4 3.5 5.9 5.4 10 3.7 8.1 5.9 11.1 8.1 11.1 0.7 0 1.3 -0.1 1.3 -0.2z m197.6 -31.8 c1.3 0 3.3 -0.9 4.4 -2 1.7 -1.7 1.9 -3.3 1.9 -13.7 0 -6.5 0.7 -15.8 1.5 -20.8 0.9 -4.9 1.6 -9.8 1.6 -10.7 0 -2.9 -2.7 -2 -3.9 1.2 -1.3 4 -2.4 3.8 -1.9 -0.2 0.4 -2.3 -0.1 -4.1 -1.5 -6 -1.8 -2.5 -2 -4.2 -1.9 -16.8 0.1 -13.6 0 -14.1 -2.3 -15.6 -1.2 -0.8 -3.8 -1.7 -5.6 -2 -3.1 -0.5 -3.8 -0.1 -6.9 3.8 -1.9 2.3 -5.9 6.8 -8.7 9.9 -6.4 6.8 -6.8 9.4 -1.7 11.5 5.7 2.4 8.4 1.5 11.8 -3.6 l3 -4.5 0.7 3.5 c2 9.8 2.7 18.4 1.8 20.9 -0.6 1.4 -3 5 -5.5 7.9 -5 6.2 -5.3 7.5 -2.2 9.6 3.1 2.2 6.5 2 8 -0.4 2 -3.2 2.8 -2.3 2.8 3.3 0 4.9 -3 19.2 -4.5 21.7 -1.5 2.4 0.4 4.3 3.6 3.6 1.8 -0.3 4.2 -0.6 5.5 -0.6z m37.2 -7.4 c2.7 -1.4 5.4 -3.1 6 -3.9 1 -1.2 6.6 -3.2 16.9 -6.2 0.6 -0.2 1.7 -1.3 2.2 -2.4 1 -1.7 0.5 -2.4 -3.3 -5 -2.5 -1.7 -5.2 -3.1 -6.2 -3.1 -2.8 0 -9.8 2.3 -11.3 3.8 -4.6 4.4 -5.4 -4.7 -1.2 -12.8 3.7 -7 3.7 -7.9 0.9 -11.5 -1.8 -2.3 -2.6 -2.6 -5.8 -2.1 -3.7 0.6 -3.8 0.5 -4.4 -3.3 -0.7 -4.8 -0.3 -6.2 4.3 -12.6 3.3 -4.7 3.6 -5.7 4.6 -17 1.2 -12.5 3.4 -19.4 9.1 -27.6 1.4 -2.1 2.3 -4.6 2.1 -5.9 -0.5 -3.3 -4.6 -6.1 -9.9 -6.7 -5.5 -0.6 -7.8 1.2 -16.3 12.7 -3.3 4.4 -7.7 10.2 -9.7 12.8 -6.3 7.8 -4 12.6 3.2 6.6 1.7 -1.5 3.3 -2.4 3.6 -2.1 1.2 1.2 -1 12.9 -2.8 15.3 l-2 2.5 -3.4 -5.8 c-3.9 -6.5 -10 -13.1 -11.1 -12 -0.4 0.4 -0.1 3.6 0.7 7 0.7 3.4 1.6 8.2 1.9 10.8 0.6 4 5.2 11.7 8.6 14.1 1.4 1.1 3.5 -2.1 3.5 -5.4 0 -1.5 0.4 -2.8 1 -2.8 0.6 0 0.9 3.3 0.8 8.3 -0.2 6.6 0.1 8.7 1.6 10.9 1.8 2.8 1.8 7.2 0.1 15.4 -0.6 2.6 -0.2 3.6 2 5.8 2.9 2.9 2.9 2.8 0.9 13.2 -0.5 2.4 0.1 4.1 2.1 7.3 3.2 4.8 4.8 5 11.3 1.7z m166.7 -14 c9.6 -2.6 26.5 -3.1 38.6 -1.3 17.5 2.7 20.7 2.8 22.5 1 2.2 -2.3 1.2 -8 -2 -11.2 -2.4 -2.3 -3.2 -2.5 -13.8 -2.5 -9.1 -0.1 -11.3 -0.4 -11.3 -1.5 0 -3 21.4 -16.9 29 -19 5.3 -1.4 8.5 -3.8 8.5 -6.2 0 -2.7 -10.6 -13.7 -14.9 -15.5 -1.8 -0.8 -5.4 -1.4 -8 -1.4 -4.6 0 -15.2 -4.6 -20.9 -9 -3.9 -3.1 -6.2 -2.6 -6.2 1.3 0 4.5 2.5 12.2 5.1 15.8 l2.2 3.1 11.1 -0.4 c9.7 -0.3 11.1 -0.1 11.1 1.3 0 1.9 -8.5 9.3 -12.7 11.2 -1.6 0.6 -2.8 1.5 -2.8 1.9 0 0.5 -0.4 0.8 -1 0.8 -0.5 0 -6.4 3.6 -12.9 8.1 -9.7 6.5 -12.4 7.9 -14.3 7.3 -1.3 -0.4 -3.4 -0.8 -4.8 -0.9 -1.4 -0.1 -3.6 -0.4 -5 -0.8 -1.4 -0.3 -5.3 -0.8 -8.6 -1 -5.8 -0.5 -6.2 -0.3 -7.3 2 -1.7 3.8 -1.3 6.5 2 13.2 3.1 6.2 3.2 6.3 6.8 5.8 2 -0.3 6.3 -1.2 9.6 -2.1z"/>
  <path d="M734.4 1079.9 c-4.4 -1.2 -10.7 -8.5 -13.4 -15.5 -1.4 -3.7 -2.5 -9 -2.8 -14.1 -0.4 -7 -0.1 -8.8 1.8 -12.8 3.1 -6.3 8.4 -9 17.2 -8.6 3.4 0.1 10.2 6.1 12.8 11.1 4.4 8.5 6.3 23.4 3.9 29.7 -2.8 7.6 -11.9 12.3 -19.5 10.2z"/>
  <path d="M450.5 1039.7 c-2.2 -0.7 -3.9 -1.7 -3.7 -2.2 0.1 -0.6 1.7 -5.4 3.4 -10.7 2.9 -8.7 3.5 -9.8 5.6 -9.8 5.7 0 12.2 6.1 12.2 11.4 -0.1 8.7 -8.3 14 -17.5 11.3z"/>
  <path d="M694 927.6 c0 -1 0.5 -2.6 1 -3.7 0.9 -1.6 0.7 -1.9 -1.2 -1.9 -1.3 0 -5.4 0.9 -9.2 2 -3.8 1.1 -7.2 1.8 -7.4 1.5 -0.6 -0.5 3.7 -6.5 4.8 -6.5 1.4 0 25.4 -23.2 33.6 -32.5 17.9 -20.4 20.4 -23.5 28.6 -34.5 23.3 -31.4 37.8 -56 47.8 -80.7 14.4 -36 16.2 -76.2 4.9 -109 -11.4 -33 -27.4 -51.8 -54.7 -64.4 -11.8 -5.5 -16.2 -6.8 -29.2 -9 -19.9 -3.2 -46.9 -2.2 -68.5 2.7 -19.2 4.4 -30.6 6.6 -31.2 6 -0.3 -0.3 0 -1.3 0.8 -2.2 2.1 -2.6 14.7 -11.6 21.4 -15.4 3.3 -1.8 9.2 -5.4 13 -8 3.9 -2.6 9.7 -6.1 13 -8 3.3 -1.8 8.5 -5.1 11.5 -7.2 11.6 -8.2 62.3 -34.4 93.5 -48.2 49.1 -21.9 61.2 -26.3 87 -32.1 32.5 -7.3 51 -6.9 68.2 1.5 14.5 7.2 23.6 17.3 33.4 37.2 8.9 18.3 12.3 33.7 14.5 65.9 2.4 34.9 -11.6 102.8 -32.3 156.3 -8.1 21.1 -11.7 28.4 -20 40.8 -9.2 13.8 -20.3 23.7 -31.2 27.8 l-5.1 2 0 -3.4 c0 -4.8 4.4 -24.6 7.5 -33.5 2.3 -6.9 2.4 -7.3 0.5 -5.6 -1.1 1 -3.2 4.5 -4.7 7.7 l-2.6 5.9 -2.3 -2.2 c-2.6 -2.5 -2.3 -2.9 -5 6.6 -2.7 9.5 -12.3 31.6 -15.9 36.5 -1.9 2.5 -5.5 6.6 -8.2 9.1 -4.1 4 -5.6 4.7 -9.8 5.2 -4 0.4 -5.4 0.2 -7.1 -1.4 -2.1 -1.9 -2.1 -1.9 -7.6 5.8 -3.1 4.3 -6.4 9.4 -7.3 11.3 -2.5 4.9 -18.7 25 -19.7 24.4 -0.4 -0.3 -0.8 -2.2 -0.8 -4.4 0 -3.3 -0.3 -3.7 -1.9 -3.3 -1.1 0.3 -2.4 1.7 -3.1 3.2 -0.6 1.5 -3.1 5 -5.5 7.7 l-4.4 4.9 -0.1 -3.1 c0 -1.6 0.4 -3.4 1 -4 3.2 -3.2 19.1 -40.4 17.2 -40.4 -1.6 0.1 -3.1 1.7 -5.2 6 -1.3 2.5 -4.7 8.7 -7.7 13.8 -2.9 5.2 -6.6 12.1 -8.2 15.5 -1.5 3.4 -3.8 7.3 -5 8.7 l-2.2 2.5 0.7 -4.7 c1 -7.6 -1.3 -6.2 -7.9 4.7 -7.9 13.2 -28.6 33.5 -34.2 33.5 -2.6 0 -1.8 -4.5 2.4 -13.3 7.6 -16 6.6 -16.4 -7.3 -2.9 -5.6 5.4 -12.1 11.5 -14.6 13.6 -2.5 2.1 -7.5 6.8 -11.2 10.4 -4.6 4.3 -6.8 5.9 -6.8 4.8z"/>
  <path d="M414.5 809.3 c-43.8 -5.6 -74.5 -22.5 -100.6 -55.3 -15.3 -19.3 -28.1 -55.6 -31.1 -88 -2.7 -30 5.7 -88.6 17.4 -121 5.2 -14.3 15.6 -37 20.7 -44.9 2.7 -4.2 6.1 -10.1 7.6 -13.1 11.9 -23.7 54.4 -67.5 90 -92.7 16.5 -11.6 55.7 -33.1 58.6 -32.1 0.5 0.2 -1.6 4.6 -4.7 9.8 -17.7 30.2 -33.8 63.4 -43.8 90.3 -7.8 21.1 -10.3 29.3 -17.1 56.3 -8.4 33.2 -9.8 44.4 -9.2 75.3 0.5 30.4 2.7 47.2 8.3 63.2 14.9 42.9 37.5 69.5 74.9 88.2 7.6 3.8 29 10.3 38 11.6 17 2.4 50.9 4.2 66.5 3.6 l15.5 -0.6 -5 3.2 c-11.6 7.5 -38.5 19.5 -62.2 27.9 -12.3 4.4 -36.5 10.7 -51.6 13.6 -19.9 3.7 -59.4 6.3 -72.2 4.7z"/>
  <path d="M576.5 754.4 c-21.2 -1.2 -39.3 -5.3 -59.4 -13.3 -18.8 -7.6 -25.9 -12.1 -38.2 -24.8 -16.7 -17 -26.7 -35.2 -34.1 -61.8 -2.7 -9.9 -3 -12.9 -3.5 -29.5 -0.5 -16.6 -0.2 -20.2 2.1 -35.5 4.5 -28.3 9.1 -43 21.7 -67.7 14.5 -28.8 26.7 -47 49.7 -74.8 19.3 -23.3 32.3 -36.9 56.9 -59.5 19.3 -17.7 31.1 -27 49.3 -39 12.5 -8.3 48.6 -27 65.5 -34 14.8 -6.1 76.4 -27.9 77.1 -27.3 0.1 0.2 -9.8 8.3 -22 18.1 -45.4 36.4 -66.9 59.5 -91.1 97.7 -7.7 12.2 -19.7 36 -24.8 49 -6.3 16.1 -15.2 49.3 -18.8 69.8 -1.8 10.1 -2.2 16.6 -2.3 31.7 0 23.6 1.8 36.6 7.9 57.8 6.2 21.5 11.3 31.3 26.1 50.2 15.6 19.8 37.6 32.5 71.4 41.1 21.2 5.5 36 6.3 71 3.8 5.6 -0.4 8.2 -0.3 7.5 0.4 -3 2.9 -25.5 13 -43.5 19.5 -29.2 10.7 -40.8 14.2 -60.8 18.8 -29.9 6.9 -47.8 9.1 -76.7 9.4 -13.7 0.1 -27.7 0.1 -31 -0.1z"/>
  <path d="M1043 799.1 c-11.2 -3.6 -17.9 -8.3 -20.9 -14.5 -2.6 -5.3 -2.6 -8.9 -0.1 -14.2 3.8 -7.8 11.5 -10.5 22.3 -8 13.6 3.2 24.8 11.3 26.3 19 2.7 14.7 -10.6 23.2 -27.6 17.7z"/>
  <path d="M166.5 750.3 c-0.9 -3.2 -2 -7 -2.5 -8.5 -0.8 -2.5 -0.6 -2.8 1.3 -2.8 3.4 0.1 19.6 2.6 20.3 3.2 0.5 0.5 -15.9 13.8 -17 13.8 -0.3 0 -1.3 -2.6 -2.1 -5.7z"/>
  <path d="M1068 687.6 c-5.7 -1.6 -12 -4.8 -14.2 -7.3 -1 -1 -2.4 -3.6 -3.3 -5.7 -3.3 -7.8 1.7 -17.9 10.2 -20.7 5.3 -1.7 20.5 -0.6 27.5 2 16.1 6.2 18 24.4 3.3 31.2 -4.7 2.2 -16.5 2.4 -23.5 0.5z"/>
  <path d="M202.1 381.3 c0 -1.6 0.6 -4.5 1.2 -6.5 1.1 -3.6 1.3 -3.7 3.7 -2.5 3.8 1.9 3.8 5.8 0 9.1 -4 3.3 -5 3.3 -4.9 -0.1z"/>
  <path d="M214 369.2 c-5.7 -2.7 -9.1 -5.6 -8.8 -7.6 0.2 -1.1 1 -2.2 1.8 -2.4 2 -0.3 14 6.8 14 8.4 0 2.1 -4 3 -7 1.6z"/>
  <path d="M1053.5 376.1 c-0.6 -1 2.1 -4.1 3.6 -4.1 1.3 0 1.1 2.4 -0.3 3.8 -1.4 1.4 -2.5 1.5 -3.3 0.3z"/>
  <path d="M339.8 225.5 c-0.4 -0.6 0.1 -2.6 0.9 -4.5 0.8 -1.9 1.7 -3 2 -2.4 0.6 1.6 -2.2 8.1 -2.9 6.9z"/>
  <path d="M336.7 216.4 c-1.1 -1.1 -0.8 -4.9 0.5 -6.2 1.7 -1.7 2.8 -1.5 2.8 0.6 -0.1 2.4 -2.4 6.4 -3.3 5.6z"/>
  <path d="M325.5 205.3 c1.1 -5.8 2.1 -6.6 4.9 -3.8 2 2 1.1 4.2 -2.6 6.1 l-3.1 1.6 0.8 -3.9z"/>
  <path d="M530 109.7 c0 -2.5 -0.8 -5.8 -1.7 -7.4 -1.6 -2.9 -1.6 -3.1 1.6 -7.6 4.1 -6 5.6 -6.1 4.6 -0.4 -0.4 2.3 -1 7.5 -1.4 11.6 -0.4 4.6 -1.1 7.6 -1.8 7.9 -0.9 0.2 -1.3 -1 -1.3 -4.1z"/>
 </g>
</svg>