<?xml version="1.0" encoding="utf-8"?>
<!-- Generator: Adobe Illustrator 26.3.1, SVG Export Plug-In . SVG Version: 6.00 Build 0)  -->
<svg version="1.1" id="图层_1" xmlns="http://www.w3.org/2000/svg" xmlns:xlink="http://www.w3.org/1999/xlink" x="0px" y="0px"
	 viewBox="0 0 1366 768" style="enable-background:new 0 0 1366 768;" xml:space="preserve">
<style type="text/css">
	.st0{fill:#FFFFFF;}
</style>
<g>
	<path class="st0" d="M956.7,381.9c2.08-2.04,3.78-3.74,6.25-4.84c9.97-4.44,19.83-9.13,29.7-13.78c0.74-0.35,1.45-1.03,1.88-1.73
		c4.06-6.59,8.11-13.18,12.05-19.84c0.89-1.5,0.95-3.38-0.18-4.78c-1.09-1.34-2.77-1.67-4.45-1c-3.18,1.27-6.39,2.5-9.49,3.95
		c-2.04,0.95-2.27,2.23-1.22,4.25c0.72,1.39,1.38,2.8,2.07,4.2c2.61,5.34,0.89,8.56-3.08,12.16c-1.01,0.92-2.09,1.77-3.14,2.65
		c-0.18,0.15-0.36,0.41-0.57,0.43c-4.54,0.54-9.09,1.11-13.17-1.79c-1.64-1.16-2.51-2.62-2.52-4.72c-0.01-3.71,1.04-7.14,2.38-10.52
		c0.25-0.62,0.5-1.24,0.74-1.86c-0.1-0.17-0.2-0.33-0.3-0.5c-0.95,0.37-2.05,0.55-2.83,1.14c-1.84,1.39-3.58,2.93-5.26,4.51
		c-0.42,0.39-0.8,1.3-0.63,1.77c0.89,2.49,1.98,4.91,2.97,7.37c0.71,1.77,1.73,3.51,1.99,5.35c0.46,3.29-2.15,5.23-5.25,4
		c-1.54-0.61-2.86-1.77-4.35-2.53c-1.14-0.58-2.36-1.07-3.61-1.34c-0.8-0.17-1.38,0.27-1.16,1.37c0.24,1.21,0.29,2.46,0.35,3.69
		c0.06,1.16,0.35,2.51-1.19,2.99c-1.46,0.46-2.92,0.35-3.91-0.98c-1.42-1.9-2.88-3.78-4.04-5.84c-2.04-3.63-3.81-7.43-5.82-11.08
		c-0.8-1.46-1.95-2.74-2.95-4.09c-0.7-0.95-1.58-1.82-2.08-2.87c-0.39-0.81-0.72-2.39-0.36-2.67c0.76-0.57,2.17-0.94,3.02-0.62
		c2.02,0.76,3.92,1.89,5.77,3.03c1.38,0.85,2.55,2.01,3.91,2.89c0.66,0.43,1.53,0.53,2.31,0.78c-0.1-0.8,0.02-1.72-0.34-2.39
		c-2.61-4.8-5.8-9.18-9.85-12.89c-1.1-1.01-2.25-2.01-3.17-3.17c-0.58-0.74-0.98-1.75-1.12-2.69c-0.19-1.22,0.44-2.04,1.78-1.46
		c5.5,2.35,11.27,4.26,15.6,8.64c2.14,2.16,3.95,4.65,5.96,6.95c0.52,0.59,1.18,1.11,1.87,1.49c0.33,0.18,1.05,0.1,1.31-0.15
		c1.62-1.54,3.21-3.12,4.71-4.77c1.48-1.62,1.38-2.3-0.43-3.52c-1.03-0.69-2.12-1.33-3.25-1.83c-3-1.33-3.29-1.92-2.2-5.3
		c2.64,0.15,5.32,0.2,7.97,0.47c4.38,0.44,6.33-1.57,7.27-6.37c0.3-1.55-0.07-3.31,1.39-4.49c0.35-0.28,0.85-0.72,1.17-0.64
		c2.27,0.58,4.65,0.79,6.54,2.54c1.12,1.04,2.55,1.76,3.91,2.51c2.26,1.24,2.87,2.64,1.65,4.9c-0.66,1.23-1.76,2.22-2.67,3.32
		c-0.64,0.78-1.28,1.56-1.92,2.34c0.13,0.17,0.25,0.35,0.38,0.52c0.96-0.34,1.94-0.6,2.86-1.02c3.92-1.77,7.83-3.55,11.72-5.38
		c1.74-0.82,3.49-1.64,5.11-2.68c1.87-1.2,3.79-2,6-1.57c2.63,0.51,5.27,1.02,7.81,1.83c3.57,1.14,5.52,3.85,5.88,7.5
		c0.26,2.59,0.07,5.23,0.07,7.84c0,1.42-0.8,2.29-2,2.9c-3.78,1.93-7.7,3.63-11.28,5.87c-3.08,1.93-5.85,4.39-8.62,6.77
		c-1.35,1.16-1.28,2.52,0.26,3.75c1.9,1.52,3.72,3.14,5.48,4.82c1.77,1.69,1.77,3.64,0.03,5.38c-0.74,0.74-1.61,1.43-2.56,1.87
		c-3.38,1.57-5.81,4.27-8.38,6.8c-0.49,0.48-1.13,1.52-0.93,1.83c0.35,0.57,1.24,1.02,1.96,1.12c1.29,0.19,2.62,0.16,3.93,0.09
		c2.69-0.13,5.01,0.78,7.17,2.29c1.38,0.96,2.81,1.83,4.23,2.72c1.58,0.99,1.74,3.78,0.03,5.03c-3.93,2.89-8.06,5.5-12.91,6.61
		c-2.53,0.58-3.33-0.07-3.53-2.59c-0.07-0.87-0.21-1.74-0.34-2.6c-0.36-2.45-2.86-3.58-4.9-2.15c-1.97,1.38-2.74,3.39-2.55,5.71
		c0.66,7.78,1.23,15.57,2.17,23.32c0.55,4.5,1.64,8.95,2.65,13.39c1.57,6.86-3.36,12.31-10.3,11.18c-1.84-0.3-3.65-0.8-5.46-1.27
		c-4.16-1.1-8.31-2.23-12.45-3.37c-0.9-0.25-1.78-0.58-2.63-0.97c-1.11-0.5-1.45-1.3-0.63-2.49c0.57,0.04,1.21-0.03,1.8,0.13
		c4.36,1.19,8.54-0.06,12.74-0.93c1.5-0.31,4.02-3.96,3.94-5.98c-0.39-9.67-0.87-19.33-1.42-28.99c-0.06-1.08-0.83-2.13-1.31-3.27
		c-5.48,2.88-9.96,6.57-14.1,10.64c-3.74,3.68-7.38,7.46-10.99,11.27c-3.71,3.92-8.04,4.97-12.91,2.67c-3.94-1.86-7.75-4-11.53-6.17
		c-1.81-1.03-1.52-3.61,0.47-4.46c1.31-0.56,2.73-0.91,4.13-1.16c5.05-0.92,9.56-3.24,14.05-5.54
		c10.61-5.43,21.17-10.96,31.74-16.47c0.48-0.25,1.04-0.57,1.3-1.02c2.14-3.73,4.34-7.43,6.22-11.29c0.56-1.14,0.19-2.74,0.24-4.12
		c-1.35,0.27-2.88,0.21-4.01,0.85c-4.77,2.71-9.42,5.64-14.13,8.47c-0.75,0.45-1.58,0.76-2.31,1.23c-3.86,2.48-7.41,0.77-10.97-0.79
		C957.51,382.51,957.18,382.22,956.7,381.9z M982.12,348.25c-0.38,1.67-1.01,3.3-1,4.92c0.01,0.88,1.05,1.81,1.78,2.58
		c0.21,0.22,1.21,0.14,1.4-0.13c0.68-0.95,1.81-1.73,1.24-3.26C984.88,350.62,984.59,348.69,982.12,348.25z"/>
	<path class="st0" d="M366.14,393.12c-0.25-0.86-0.4-1.39-0.68-2.36c-0.68,1.03-1.22,1.79-1.69,2.6c-0.31,0.53-0.35,1.38-0.79,1.66
		c-3.38,2.22-6.03,5.53-10.04,6.76c-0.7,0.22-1.66,0.14-2.33-0.17c-2.69-1.28-5.32-2.71-7.97-4.09c-0.55-0.29-1.24-0.5-1.58-0.96
		c-0.53-0.71-0.82-1.61-1.21-2.42c0.68-0.31,1.34-0.69,2.05-0.93c2.46-0.84,4.99-1.5,7.39-2.46c4.46-1.78,8.87-3.67,13.26-5.59
		c9.83-4.3,19.94-7.85,30.12-11.22c0.89-0.29,1.77-0.63,2.62-1.02c3.45-1.57,4.31-3.35,4.06-7.12c-0.38-5.73-0.35-11.49-0.89-17.2
		c-0.33-3.44-1.39-6.8-2.15-10.2c-0.79-3.52-1.67-7.03-2.38-10.57c-0.41-2.03,1.78-3.96,3.88-3.59c1.9,0.33,3.8,0.67,5.7,1.02
		c3.42,0.63,6.46,4.77,6.49,8.83c0.02,2.62,0.15,5.25-0.01,7.86c-0.15,2.47-0.34,5.01-1.02,7.37c-1.5,5.27-0.57,10.41,0.33,15.57
		c0.32,1.82,1.29,2.03,2.99,1.26c1.41-0.64,2.88-1.23,4.38-1.55c1.93-0.41,2.97,0.48,3.21,2.41c0.39,3.08-0.52,4.52-3.49,5.49
		c-5.9,1.94-5.74,1.91-4.92,7.99c1.31,9.71,5.33,18.26,10.74,26.26c0.38,0.56,0.82,1.07,1.45,1.89c1.17-2.47,0.94-4.83,1.04-7.13
		c0.17-3.8,0.32-7.6,0.56-11.39c0.03-0.45,0.56-1.22,0.87-1.22c0.67,0,1.53,0.2,1.97,0.65c3.05,3.17,5.06,6.97,4.93,11.4
		c-0.19,6.67-0.76,13.33-1.24,19.99c-0.22,3.05-0.76,6.08-0.91,9.13c-0.14,2.84-2.1,3.76-4.24,4.59c-2.01,0.78-3.96,0.5-5.25-1.24
		c-1.17-1.58-2.22-3.36-2.84-5.21c-1.63-4.84-3.87-9.31-6.87-13.44c-0.98-1.35-1.73-2.89-2.46-4.39c-1.59-3.26-2.79-3.53-5.4-0.96
		c-2.98,2.93-5.78,6.05-8.83,8.9c-2,1.86-4.22,3.52-6.49,5.05c-7.2,4.84-14.37,9.73-21.75,14.27c-3.52,2.17-7.46,3.7-11.29,5.34
		c-1.87,0.8-3.7,0.52-5.36-1.01c-0.97-0.89-2.42-1.24-3.55-1.98c-1.68-1.11-3.35-2.27-4.87-3.59c-0.55-0.48-0.85-1.39,0.47-1.82
		c9.78-3.16,19.6-6.24,28.47-11.61c6.67-4.03,13.3-8.13,19.94-12.22c2.91-1.79,4-4.35,3.17-7.68c-0.48-1.91-0.99-3.82-1.58-6.1
		c-3.41,2.42-6.1,4.87-7.5,8.53c-1.33,3.46-4.24,5.31-7.87,5.13c-3.14-0.15-5.31-2.37-5.08-5.49c0.11-1.59,0.72-3.14,1.07-4.71
		c0.4-1.8,0.97-3.6,1.08-5.43c0.15-2.65-1.23-3.65-3.81-3.02C368.78,392.28,367.55,392.7,366.14,393.12z M404.93,394.2
		c-0.29-1.56-0.56-3.61-1.06-5.59c-0.73-2.88-1.6-5.74-2.48-8.58c-0.35-1.12-1.2-1.91-2.42-1.34c-1.45,0.69-3.26,1.08-3.68,3.05
		c-0.03,0.16,0.13,0.34,0.17,0.52c0.43,1.98,0.95,3.94,1.25,5.93c0.54,3.58,2.52,6.18,5.44,8.07
		C403.8,397.35,404.89,396.63,404.93,394.2z M389.13,384.45c-3.18,1.19-6.09,2.24-8.98,3.37c-0.68,0.27-1.35,0.68-1.88,1.19
		c-0.78,0.74-0.76,1.65,0.25,2.15c3.23,1.63,6.66,2.59,10.27,1.79c0.79-0.18,1.8-1.31,1.93-2.13
		C391.09,388.49,390.49,386.26,389.13,384.45z"/>
	<path class="st0" d="M642.05,378.96c5.75-2.11,8.88-9.79,8.41-14.4c-2.42,0.74-4.87,1.54-7.35,2.23c-0.7,0.19-1.5,0.14-2.24,0.06
		c-0.61-0.06-1.69-0.27-1.72-0.52c-0.11-0.85,0.01-1.81,0.33-2.62c0.2-0.51,0.85-0.89,1.37-1.23c8.43-5.48,16.93-10.84,25.27-16.46
		c3.17-2.13,6.53-1.84,9.68-1.12c2.62,0.6,5.14,2.23,7.35,3.89c3.21,2.41,2.89,6.02-0.55,8.16c-5.84,3.63-10.17,8.54-13.05,14.75
		c-1.26,2.71-2.54,5.41-3.66,8.17c-0.41,1.01-0.56,2.21-0.49,3.3c0.18,2.69-1.44,4.06-3.44,5.29c-1.86,1.14-3.6,2.48-5.51,3.52
		c-2.91,1.59-3.58,4.31-3.93,7.22c-0.47,3.96-0.23,4.19,3.67,3.93c3.46-0.23,6.34,1.72,7.09,5.15c0.22,1-0.12,2.44-0.76,3.26
		c-1.21,1.56-2.7,2.95-4.28,4.16c-2.96,2.26-4.26,5.27-4.58,8.85c-0.14,1.53,0.81,1.89,1.95,1.84c1.55-0.07,3.09-0.4,4.65-0.52
		c3.16-0.25,6.32-0.6,9.48-0.57c1.14,0.01,2.42,0.81,3.36,1.59c2.19,1.8,4.21,3.81,6.56,5.97c-0.16,1.22-1.22,2.19-2.81,2.5
		c-1.27,0.25-2.61,0.41-3.9,0.3c-6.75-0.54-13.29,0.44-19.81,2.12c-2.93,0.75-6,1.07-9.03,1.32c-2.13,0.18-3.69-0.92-4.4-3.06
		c-0.21-0.65-0.49-1.31-0.89-1.85c-3.29-4.36-1.29-4.97,0.4-8.35c0.63-1.27,1.37-2.52,1.77-3.86c0.65-2.18-0.02-4.01-1.84-5.47
		c-2.56-2.06-2.55-3.7,0.2-5.37c1.41-0.86,1.96-1.86,2.05-3.42c0.14-2.4,0.46-4.79,0.64-7.18c0.03-0.39-0.16-0.9-0.42-1.2
		c-2.07-2.42-1.24-4.99-0.48-7.58c0.67-2.25,1.39-4.48,1.88-6.77c0.14-0.64-0.46-1.44-0.72-2.17c-0.16,0.04-0.32,0.07-0.49,0.11
		c-0.67,1.7-1.3,3.41-2.02,5.09c-1.06,2.5-2.76,2.77-4.24,0.56c-1.77-2.64-3.82-5.25-4.81-8.2c-0.88-2.6-0.5-5.63-0.65-8.47
		c-0.14-2.67-0.3-5.34-0.35-8.01c-0.02-0.89,0.03-2.02,0.54-2.59c0.34-0.38,1.96-0.28,2.34,0.17c3.2,3.84,6.04,7.94,7.83,12.65
		C641.06,375.67,641.5,377.27,642.05,378.96z M654.96,375.14c0.2,0.12,0.41,0.25,0.61,0.37c0.7-0.79,1.85-1.49,2.01-2.38
		c0.95-5.27,3.54-9.83,5.93-14.49c0.42-0.82,0.51-1.8,0.75-2.71c-0.15-0.15-0.3-0.3-0.45-0.46c-0.96,0.27-2.04,0.35-2.85,0.86
		c-2,1.27-3.9,2.69-5.77,4.15c-1,0.78-1.59,1.91-0.71,3.1c1.82,2.48,1.54,5.12,0.93,7.86C655.14,372.66,655.11,373.91,654.96,375.14
		z"/>
	<path class="st0" d="M846.79,406.54c-0.95,0.48-2,0.82-2.83,1.45c-2.97,2.28-5.98,4.54-8.76,7.04c-3.28,2.95-9.32,3.33-13.03,0.08
		c-2.46-2.15-5.44-3.74-8.29-5.4c-1.15-0.67-2.14-1.38-1.67-2.66c0.27-0.75,1.3-1.45,2.13-1.72c3.67-1.2,7.44-2.09,11.1-3.35
		c8.37-2.87,16.12-6.99,23.5-11.85c2.07-1.37,2.89-3.16,3.25-5.68c1.52-10.53,1.77-21.01-0.14-31.51c-0.18-0.98-0.28-2.01-0.68-2.91
		c-1.42-3.24-0.56-6.35,0.27-9.51c0.26-1,0.83-1.54,1.7-1.16c2.36,1.05,4.89,1.94,6.9,3.49c2.96,2.27,5.61,4.97,8.23,7.64
		c2.04,2.08,2.96,4.49,1.65,7.5c-0.66,1.51-0.72,3.28-1.01,4.94c-0.64,3.69-1.24,7.38-1.86,11.07c-0.05,0.31-0.15,0.62-0.14,0.93
		c0.04,1.49-0.78,3.47,1.07,4.13c0.82,0.29,2.26-0.75,3.25-1.43c2.42-1.66,4.72-3.49,7.13-5.16c0.62-0.43,1.46-0.67,2.21-0.72
		c1.91-0.12,3.84-0.08,5.76-0.1c0.06,0,0.12-0.01,0.19-0.01c1.7,0.01,4.92,2.94,5.24,4.63c0.18,0.96-0.03,1.45-0.96,1.87
		c-2.67,1.2-5.23,2.67-7.94,3.77c-5.41,2.19-9.57,6.34-14.62,9.03c-3.12,1.66-4.8,3.99-5.5,7.27c-1.49,6.92-4.99,13.01-7.83,19.39
		c-3.89,8.74-10.52,14.32-19.33,17.69c-4.99,1.9-9.93,3.79-15.38,3.43c-1.87-0.12-3.73-0.36-5.58-0.63
		c-0.48-0.07-0.91-0.47-1.37-0.71c0.37-0.43,0.66-1.02,1.13-1.25c2.64-1.27,5.38-2.34,7.97-3.69c7.5-3.9,14.37-8.67,19.32-15.65
		c2.14-3.01,3.73-6.4,5.56-9.62C847.2,406.95,846.99,406.75,846.79,406.54z"/>
	<path class="st0" d="M531.2,354.05c1.31-1.45,1.13-2.96,0.79-4.49c-0.43-1.92-0.98-3.82-1.3-5.76c-0.27-1.63,0.26-1.95,1.86-1.56
		c2.1,0.51,3.45,1.64,3.72,3.89c0.07,0.54,0.27,1.1,0.55,1.58c0.6,1.02,1.2,1.27,2.38,0.42c2.02-1.46,2.68-3.49,3.04-5.73
		c0.4-2.47,0.76-4.94,1.14-7.4c0.32-2.06,1.8-2.93,3.71-2.18c4,1.56,5.93,6.55,4.72,10.78c-1.14,3.99-3.38,6.99-6.45,9.59
		c-1.33,1.12-2.46,2.48-3.68,3.74c-1.9,1.96-2.43,4.47-2.73,7.03c-0.21,1.74,1.13,2.75,2.87,2.33c2.05-0.49,6.48,1.39,7.46,3.27
		c0.3,0.57,0.49,1.38,0.33,1.97c-0.89,3.18-2.07,6.15-5.72,7.23c-2.27,0.67-2.67,1.84-1.71,3.99c0.58,1.3,1.14,2.62,1.59,3.97
		c0.97,2.91,0.49,5.67-1.08,8.26c-1.65,2.72-3.3,5.44-4.95,8.16c-0.23,0.37-0.56,0.74-0.63,1.14c-0.13,0.86-0.12,1.75-0.17,2.63
		c0.93-0.09,2.02,0.11,2.75-0.32c1.59-0.92,2.79-2.19,2.57-4.38c-0.15-1.5,0.17-3.05,0.27-4.34c2.69,0.13,5.03,0.28,7.37,0.36
		c2.29,0.07,4.53,0.77,5.16,2.98c0.6,2.13-0.77,4.03-2.55,5.45c-1.55,1.24-3.02,2.58-4.52,3.89c-2.17,1.89-4.7,2.99-7.52,3.55
		c-1.64,0.32-3.38,0.65-4.8,1.46c-1.33,0.76-2.9,1.96-3.33,3.29c-1.76,5.49-5.59,9.37-9.57,13.14c-0.92,0.87-2.36,1.37-3.65,1.62
		c-0.71,0.14-1.78-0.41-2.33-0.99c-0.26-0.27,0.13-1.46,0.52-2.03c1.91-2.74,4.49-5.01,5.19-8.55c0.42-2.13-0.1-3.6-2.16-4.21
		c-0.83-0.25-1.72-0.37-2.58-0.4c-2.17-0.08-2.92-0.91-2.82-3.31c0.06-1.37,1.43-2.28,3.21-2.26c2.45,0.02,4.71-0.64,6.43-2.49
		c1.13-1.22,1.72-2.83,0.96-4.31c-0.46-0.91-1.65-1.63-2.67-2.03c-1.23-0.48-2.23,0.06-2.78,1.45c-1.28,3.25-5.11,4.42-8,2.49
		c-0.82-0.55-1.6-1.22-2.24-1.97c-1.95-2.3-2.02-4.72,0.05-6.9c3.12-3.29,5.14-6.98,5.46-11.59c0.1-1.46,0.49-3.03,1.18-4.3
		c1.01-1.85,0.44-3.34-0.45-4.9c-0.62-1.1-1.48-1.57-2.8-1.29c-3.57,0.73-5.88-1.46-8.07-3.72c-1.05-1.08-0.22-2.03,0.72-2.6
		c0.83-0.51,1.82-0.82,2.78-1.05c4.67-1.11,8.73-3.35,12.25-6.55c0.74-0.67,1.43-1.67,1.63-2.63c0.52-2.49,0.75-5.04,1.1-7.57
		c0.07-0.49,0-1.04,0.19-1.48c0.42-0.93,0.99-2.54,1.46-2.53c1.03,0.03,2.31,0.67,2.99,1.47
		C529.49,350.71,530.22,352.38,531.2,354.05z M517.87,374.02c2.87,1.36,5.22,2.39,7.82,2.02c0.85-0.12,1.97-0.97,2.28-1.76
		c0.66-1.66-0.4-3.06-1.67-3.98c-0.72-0.52-2.13-0.95-2.73-0.59C521.67,370.83,520.02,372.34,517.87,374.02z M524.04,386.74
		c0.19,1.47,0.19,2.88,1.75,2.42c1.82-0.53,3.57-1.35,5.24-2.26c0.44-0.24,0.7-1.34,0.57-1.94c-0.11-0.52-0.97-1.33-1.37-1.25
		c-1.75,0.31-3.49,0.77-5.13,1.44C524.52,385.39,524.26,386.38,524.04,386.74z M521.55,398.19c3.85-0.18,6.39-1.91,7.26-5.15
		c-2.56,0.93-4.89,1.78-7.26,2.64C521.55,396.47,521.55,397.27,521.55,398.19z"/>
	<path class="st0" d="M777.89,404.42c0.06,2.4-1.22,3.84-3.6,4.44c-2.23,0.56-4.43,1.3-6.59,2.09c-5.03,1.84-10.02,3.84-15.06,5.65
		c-9.56,3.44-18.03,8.78-26.17,14.73c-0.95,0.7-2.06,1.17-3.03,1.85c-2.47,1.73-4.84,0.85-6.94-0.54c-1.9-1.26-3.59-2.9-5.2-4.54
		c-0.7-0.71-1.18-1.8-1.38-2.79c-0.51-2.54-0.08-3.11,2.4-3.89c6.25-1.96,12.52-3.85,18.73-5.92c1.21-0.4,2.44-1.29,3.23-2.29
		c7.59-9.69,15.1-19.43,22.57-29.21c0.64-0.84,0.83-2.03,1.24-3.06c-1.07,0.22-2.23,0.24-3.19,0.69c-3.39,1.59-6.78,3.2-10.03,5.04
		c-3.68,2.08-7.26,2.42-10.57-0.38c-2.15-1.83-4.18-3.92-5.81-6.22c-1.46-2.05-0.72-3.12,1.81-3.43c0.43-0.05,0.88-0.05,1.3,0.02
		c7.89,1.32,15.52,0.69,22.85-2.76c2.4-1.13,5-1.52,7.66-0.83c3.62,0.93,7.3,1.65,10.84,2.81c2.42,0.79,2.76,2.34,1.14,4.35
		c-1.16,1.44-2.57,2.73-4.04,3.86c-7.21,5.51-12.4,12.77-17.49,20.11c-0.28,0.41-0.58,0.87-0.64,1.34
		c-0.08,0.55-0.07,1.25,0.21,1.65c0.17,0.24,1.04,0.23,1.45,0.03c4.3-1.98,8.62-3.92,12.82-6.09c2.3-1.2,4.51-1.72,6.99-0.83
		c0.41,0.15,0.84,0.25,1.26,0.34C777.44,401.19,777.81,401.63,777.89,404.42z"/>
	<path class="st0" d="M610.93,410.12c-1.03,0.56-2.1,1.05-3.08,1.68c-2.21,1.43-4.35,1.43-6.41-0.21c-1.15-0.92-2.29-1.9-3.27-3
		c-0.79-0.89-0.56-1.91,0.39-2.61c1.05-0.77,2.2-1.41,3.29-2.12c2.82-1.83,5.74-3.54,8.39-5.58c0.93-0.72,1.6-2.24,1.73-3.46
		c0.51-4.97,0.78-9.96,1.12-14.94c0.04-0.6,0.01-1.2,0.01-2.38c-1.76,1.17-3.33,1.88-4.45,3.02c-3.53,3.58-7.26,3.26-11.23,0.96
		c-1.24-0.72-2.51-1.39-3.72-2.17c-1.81-1.16-1.95-3.81-0.03-4.55c6.65-2.56,12.41-6.67,18.48-10.23c3.5-2.05,6.78-0.79,9.68,0.95
		c5.09,3.04,4.87,3.45,3.08,9.1c-1.54,4.86-2.79,9.85-3.7,14.87c-0.37,2.06-0.66,4.62,1.77,6.24c1.12,0.74,0.53,1.83,0.04,2.85
		c-0.89,1.9-1.66,3.86-2.44,5.81c-0.11,0.29-0.02,0.66-0.02,1.16c1.61-1.92,3.17-3.59,4.48-5.43c1.13-1.59,2.37-1.81,4.36-0.74
		c-0.89,1.9-1.83,3.81-2.68,5.77c-2.12,4.91-4.46,9.74-6.19,14.79c-1.09,3.19-1.39,6.7-1.78,10.09c-0.44,3.84-2.96,6.29-6.84,6.17
		c-2.62-0.08-5.24-0.22-7.85-0.4c-0.67-0.05-1.36-0.24-1.98-0.51c-1.35-0.57-1.99-1.41-1.06-2.91c2.43-3.92,5.07-7.75,7.13-11.87
		c1.56-3.12,2.34-6.62,3.47-9.94C611.4,410.38,611.17,410.25,610.93,410.12z"/>
	<path class="st0" d="M501.19,386.72c-1.3,3.64-2.35,7.52-4.06,11.07c-1.66,3.45-2.28,7.07-3.09,10.72
		c-1.33,5.96-3.08,11.82-4.34,17.79c-0.87,4.13-1.13,8.37-1.81,12.54c-0.3,1.82-0.73,3.7-1.52,5.35c-1.79,3.73-5.99,4.19-8.68,1.06
		c-0.97-1.13-1.83-2.37-2.66-3.62c-2.2-3.29-1.6-6.61,0.16-9.81c2.43-4.4,3.5-9.14,4.09-14.07c0.55-4.58,1.24-9.15,1.91-13.72
		c0.1-0.67,0.34-1.33,0.59-1.96c2.79-6.86,4.23-13.92,3.18-21.35c-0.08-0.55-0.08-1.13-0.02-1.68c0.19-1.67,1.67-2.55,3.25-1.93
		c2.28,0.9,3.69,2.73,4.86,4.75c0.78,1.34,1.42,2.77,2.06,4.19c0.57,1.26,1.36,1.62,2.46,0.69
		C498.59,385.9,499.62,385.56,501.19,386.72z"/>
	<path class="st0" d="M886.01,435.52c-1.25-0.71-2.84-1.22-3.87-2.27c-1.63-1.67-3.21-3.55-4.26-5.61
		c-4.23-8.34-8.25-16.79-12.33-25.2c-0.19-0.39-0.38-0.8-0.46-1.22c-0.46-2.24,1.2-3.93,3.22-3.05c1.45,0.63,2.8,1.74,3.9,2.92
		c4.64,4.95,8.68,10.62,13.88,14.87c5.77,4.73,13.18,6.28,20.63,6.94c1.18,0.11,2.29,0.9,3.43,1.37c-0.87,0.98-1.6,2.19-2.66,2.88
		c-1.28,0.83-2.85,1.22-4.3,1.79c-4.57,1.81-9.14,3.64-13.72,5.43C888.43,434.77,887.35,435.07,886.01,435.52z"/>
	<path class="st0" d="M378.9,371.33c-2.12-0.68-4.68-1.43-7.2-2.32c-1.52-0.54-3-1.23-4.43-1.97c-0.45-0.24-1.02-0.91-0.97-1.31
		c0.07-0.53,0.58-1.24,1.09-1.45c2.4-1.02,4.83-1.98,7.3-2.82c4.19-1.43,8.38-2.84,11.94-5.57c1.01-0.78,1.71-1.76,3.37-1.29
		c3.17,0.89,4.97,2.27,5.17,5.51c0.09,1.37-0.81,3.44-1.92,4.13c-4.1,2.54-8.48,4.63-12.76,6.87
		C380.18,371.26,379.76,371.21,378.9,371.33z"/>
	<path class="st0" d="M537.73,416.7c2.82,0.95,5.28,1.76,7.72,2.62c0.26,0.09,0.48,0.4,0.63,0.65c2.1,3.59,4.14,7.22,6.28,10.79
		c1.19,1.98-1.37,7.34-3.18,7.94c-0.6,0.2-1.37,0.21-1.98,0.03c-3.82-1.16-7.61-0.78-11.41,0.11c-0.46,0.11-1-0.11-1.5-0.18
		c0.09-0.51,0.01-1.18,0.31-1.5c1.01-1.08,2.01-2.32,3.28-2.99c2.99-1.57,3.87-6.59,2.51-9.27c-1.03-2.03-1.71-4.25-2.5-6.4
		C537.74,418.12,537.8,417.67,537.73,416.7z"/>
	<path class="st0" d="M486.37,367.65c-0.5-1.48-1.44-2.96-1.42-4.42c0.05-3.47,0.24-6.99,0.95-10.38c0.93-4.49,1.66-8.93,1.24-13.51
		c-0.14-1.5-0.16-3.6,1.41-3.8c1.25-0.16,2.72,1.33,4.08,2.11c0.19,0.11,0.31,0.39,0.4,0.62c1.01,2.79,2.18,5.54,2.97,8.39
		c0.76,2.75,0.11,5.4-1.35,7.9c-2.07,3.54-4,7.15-5.99,10.73c-0.44,0.79-0.93,1.56-1.39,2.33
		C486.96,367.63,486.67,367.64,486.37,367.65z"/>
	<path class="st0" d="M428.67,343.78c2.08-0.05,3.77,0.65,5.15,2.23c2.27,2.6,4.58,5.14,4.59,8.9c0.01,4.19-5.59,9.25-9.78,8.83
		c-1.44-0.14-2.37-0.82-2.27-2.38c0.09-1.42,0.08-2.91,0.5-4.24c0.74-2.34,0.3-4.39-0.85-6.42c-0.58-1.03-1.15-2.07-1.71-3.11
		c-1.04-1.92-0.6-2.9,1.6-3.4C426.81,343.97,427.75,343.9,428.67,343.78z"/>
	<path class="st0" d="M368.92,415.46c-0.86,1.22-1.39,2.46-2.32,3.18c-1.1,0.85-2.52,1.32-3.85,1.82c-1.62,0.61-3.31,1.06-4.95,1.61
		c-2.21,0.74-3.69-0.33-3.33-2.65c0.19-1.25,0.78-2.47,1.37-3.61c1.51-2.91,3.09-5.79,4.7-8.64c0.52-0.92,1.15-2.36,1.87-2.45
		c1.47-0.2,1.73,1.43,2.27,2.54c0.59,1.22,1.42,2.33,2.04,3.53C367.47,412.23,368.11,413.73,368.92,415.46z"/>
	<path class="st0" d="M982.12,348.25c2.47,0.44,2.76,2.37,3.41,4.1c0.57,1.53-0.56,2.31-1.24,3.26c-0.19,0.26-1.18,0.35-1.4,0.13
		c-0.73-0.76-1.77-1.7-1.78-2.58C981.11,351.55,981.74,349.92,982.12,348.25z"/>
	<path class="st0" d="M404.93,394.2c-0.04,2.43-1.13,3.15-2.8,2.07c-2.91-1.9-4.9-4.49-5.44-8.07c-0.3-1.99-0.82-3.96-1.25-5.93
		c-0.04-0.18-0.2-0.37-0.17-0.52c0.42-1.97,2.23-2.36,3.68-3.05c1.22-0.58,2.07,0.22,2.42,1.34c0.89,2.84,1.75,5.69,2.48,8.58
		C404.37,390.6,404.64,392.64,404.93,394.2z"/>
	<path class="st0" d="M389.13,384.45c1.36,1.81,1.96,4.04,1.59,6.37c-0.13,0.82-1.14,1.95-1.93,2.13c-3.61,0.8-7.03-0.15-10.27-1.79
		c-1.01-0.51-1.02-1.41-0.25-2.15c0.53-0.5,1.2-0.92,1.88-1.19C383.04,386.69,385.95,385.63,389.13,384.45z"/>
	<path class="st0" d="M654.96,375.14c0.14-1.23,0.18-2.48,0.44-3.68c0.61-2.75,0.89-5.39-0.93-7.86c-0.88-1.19-0.29-2.32,0.71-3.1
		c1.87-1.46,3.78-2.88,5.77-4.15c0.81-0.51,1.89-0.59,2.85-0.86c0.15,0.15,0.3,0.3,0.45,0.46c-0.24,0.91-0.33,1.89-0.75,2.71
		c-2.39,4.66-4.97,9.21-5.93,14.49c-0.16,0.89-1.32,1.59-2.01,2.38C655.37,375.39,655.17,375.27,654.96,375.14z"/>
	<path class="st0" d="M517.87,374.02c2.15-1.68,3.8-3.2,5.69-4.32c0.61-0.36,2.02,0.07,2.73,0.59c1.27,0.92,2.33,2.32,1.67,3.98
		c-0.31,0.79-1.43,1.64-2.28,1.76C523.09,376.41,520.74,375.38,517.87,374.02z"/>
	<path class="st0" d="M524.04,386.74c0.22-0.36,0.49-1.35,1.06-1.59c1.64-0.67,3.39-1.13,5.13-1.44c0.4-0.07,1.26,0.74,1.37,1.25
		c0.13,0.6-0.13,1.7-0.57,1.94c-1.66,0.91-3.42,1.73-5.24,2.26C524.23,389.62,524.23,388.21,524.04,386.74z"/>
	<path class="st0" d="M521.55,398.19c0-0.92,0-1.71,0-2.51c2.37-0.86,4.71-1.71,7.26-2.64C527.93,396.28,525.4,398.01,521.55,398.19
		z"/>
</g>
</svg>
