<svg id="图层_1" data-name="图层 1" xmlns="http://www.w3.org/2000/svg" viewBox="0 0 686.74 128.42"><defs><style>.cls-1{fill:#fff;}</style></defs><path d="M616.85,63c2.08-2,3.79-3.74,6.25-4.83,10-4.44,19.83-9.13,29.7-13.78a4.74,4.74,0,0,0,1.88-1.73c4.07-6.59,8.11-13.19,12.05-19.85a4.15,4.15,0,0,0-.18-4.78,3.7,3.7,0,0,0-4.45-1c-3.18,1.27-6.38,2.5-9.49,3.94-2,.95-2.27,2.23-1.22,4.26.71,1.38,1.38,2.8,2.07,4.2,2.6,5.33.89,8.55-3.08,12.16-1,.92-2.09,1.77-3.14,2.65-.19.16-.37.41-.57.44-4.54.53-9.09,1.11-13.17-1.8A5.39,5.39,0,0,1,631,38.15a27.79,27.79,0,0,1,2.38-10.52c.24-.62.49-1.24.74-1.86l-.29-.5A11.72,11.72,0,0,0,631,26.41a64.33,64.33,0,0,0-5.25,4.51,2.17,2.17,0,0,0-.64,1.77c.9,2.49,2,4.91,3,7.36.72,1.77,1.73,3.51,2,5.35.46,3.3-2.15,5.23-5.25,4-1.54-.61-2.85-1.76-4.35-2.53a15,15,0,0,0-3.6-1.33c-.8-.18-1.38.27-1.17,1.36a25.33,25.33,0,0,1,.35,3.7c.06,1.16.35,2.51-1.19,3a3.27,3.27,0,0,1-3.91-1,53.75,53.75,0,0,1-4-5.84c-2-3.63-3.81-7.43-5.82-11.08a37.46,37.46,0,0,0-2.95-4.09A18.35,18.35,0,0,1,596,28.73c-.39-.81-.73-2.39-.36-2.67a3.71,3.71,0,0,1,3-.62,34.15,34.15,0,0,1,5.77,3c1.38.85,2.56,2,3.92,2.89a9.59,9.59,0,0,0,2.3.78,7.09,7.09,0,0,0-.34-2.39,48.87,48.87,0,0,0-9.85-12.88,28,28,0,0,1-3.17-3.18A5.84,5.84,0,0,1,596.19,11c-.19-1.22.44-2,1.78-1.46,5.49,2.35,11.26,4.26,15.6,8.64,2.14,2.16,3.95,4.65,6,7a7.1,7.1,0,0,0,1.87,1.49,1.44,1.44,0,0,0,1.31-.15c1.62-1.54,3.21-3.12,4.71-4.78s1.39-2.3-.42-3.52a22.56,22.56,0,0,0-3.25-1.83c-3-1.32-3.29-1.92-2.2-5.3,2.63.15,5.31.21,8,.47,4.38.44,6.33-1.57,7.27-6.37.3-1.55-.07-3.31,1.39-4.49.35-.29.85-.72,1.17-.64,2.27.58,4.65.79,6.54,2.54a18.83,18.83,0,0,0,3.9,2.51c2.26,1.24,2.87,2.64,1.66,4.9a23.26,23.26,0,0,1-2.67,3.32l-1.92,2.34.37.52c1-.34,1.95-.6,2.87-1,3.91-1.77,7.83-3.55,11.72-5.38a45.82,45.82,0,0,0,5.1-2.68c1.87-1.2,3.79-2,6-1.57a67.07,67.07,0,0,1,7.81,1.83,8.19,8.19,0,0,1,5.88,7.5c.26,2.59.07,5.22.07,7.84a3.13,3.13,0,0,1-2,2.9c-3.78,1.93-7.7,3.64-11.29,5.88a72.49,72.49,0,0,0-8.62,6.77c-1.35,1.16-1.29,2.52.25,3.75,1.9,1.52,3.73,3.14,5.48,4.83s1.77,3.64,0,5.38A9.37,9.37,0,0,1,668,54c-3.38,1.56-5.81,4.26-8.38,6.8-.49.48-1.12,1.52-.93,1.83a3,3,0,0,0,2,1.13,20.51,20.51,0,0,0,3.92.09,11.34,11.34,0,0,1,7.17,2.29c1.38,1,2.82,1.83,4.24,2.72a3.18,3.18,0,0,1,0,5c-3.93,2.89-8.06,5.5-12.91,6.61-2.52.58-3.32-.07-3.53-2.59-.07-.87-.21-1.73-.33-2.6a3.05,3.05,0,0,0-4.9-2.15,6,6,0,0,0-2.55,5.71c.67,7.78,1.24,15.57,2.18,23.32a128.8,128.8,0,0,0,2.65,13.39c1.56,6.86-3.37,12.31-10.3,11.17-1.84-.3-3.65-.79-5.46-1.27q-6.24-1.65-12.45-3.38a17.6,17.6,0,0,1-2.63-1c-1.12-.51-1.45-1.31-.63-2.49a8.35,8.35,0,0,1,1.79.13c4.36,1.18,8.55-.06,12.74-.93,1.5-.31,4-4,3.94-6q-.58-14.5-1.42-29c-.07-1.09-.84-2.13-1.31-3.27a59.5,59.5,0,0,0-14.11,10.64c-3.74,3.68-7.38,7.46-11,11.27s-8,5-12.9,2.67c-3.94-1.86-7.75-4-11.54-6.17a2.48,2.48,0,0,1,.47-4.46,19.67,19.67,0,0,1,4.13-1.17c5.06-.92,9.56-3.24,14.06-5.54,10.61-5.42,21.16-11,31.73-16.47a3.09,3.09,0,0,0,1.3-1c2.14-3.73,4.34-7.43,6.23-11.29.55-1.14.18-2.73.24-4.12-1.35.27-2.88.21-4,.85-4.77,2.71-9.42,5.64-14.12,8.47-.75.45-1.58.77-2.32,1.24-3.86,2.47-7.41.76-11-.79A9.75,9.75,0,0,1,616.85,63Zm25.43-33.65a22.17,22.17,0,0,0-1,4.92c0,.88,1.05,1.81,1.78,2.58a1.46,1.46,0,0,0,1.4-.13c.68-1,1.81-1.73,1.23-3.26C645,31.71,644.75,29.77,642.28,29.33Z"/><path d="M26.29,74.21l-.68-2.36c-.67,1-1.22,1.79-1.69,2.6-.31.53-.35,1.37-.79,1.66-3.38,2.21-6,5.53-10,6.76a3.46,3.46,0,0,1-2.33-.17c-2.7-1.28-5.32-2.71-8-4.09a4.54,4.54,0,0,1-1.58-1A14.39,14.39,0,0,1,0,75.22a19.83,19.83,0,0,1,2.05-.93c2.46-.84,5-1.5,7.39-2.46,4.46-1.78,8.87-3.67,13.26-5.6,9.84-4.3,20-7.85,30.12-11.22a24.49,24.49,0,0,0,2.62-1c3.45-1.57,4.31-3.35,4.06-7.12-.39-5.72-.35-11.49-.89-17.2-.33-3.43-1.4-6.8-2.15-10.19s-1.67-7-2.38-10.57c-.41-2,1.77-4,3.88-3.59l5.7,1c3.42.63,6.46,4.77,6.49,8.83,0,2.62.15,5.26,0,7.87a35,35,0,0,1-1,7.37c-1.5,5.26-.57,10.41.34,15.56.32,1.82,1.29,2,3,1.26a21.76,21.76,0,0,1,4.38-1.55c1.93-.41,3,.48,3.22,2.41.39,3.08-.53,4.52-3.49,5.5-5.9,1.93-5.74,1.91-4.92,8C73,71.29,77,79.84,82.38,87.84c.38.56.82,1.07,1.45,1.89,1.17-2.46.94-4.82,1-7.13.17-3.8.32-7.6.55-11.39,0-.45.57-1.22.87-1.22a3,3,0,0,1,2,.65c3.06,3.17,5.06,7,4.94,11.4C93,88.71,92.45,95.37,92,102c-.23,3-.76,6.08-.91,9.13-.14,2.84-2.1,3.76-4.24,4.59s-4,.5-5.25-1.23a19.29,19.29,0,0,1-2.84-5.21,49.56,49.56,0,0,0-6.87-13.45,28.13,28.13,0,0,1-2.47-4.39c-1.59-3.26-2.79-3.53-5.4-1-3,2.93-5.78,6-8.84,8.9a51.92,51.92,0,0,1-6.49,5c-7.2,4.84-14.37,9.73-21.75,14.27a85.12,85.12,0,0,1-11.29,5.34,4.69,4.69,0,0,1-5.36-1c-1-.89-2.41-1.23-3.54-2a45.26,45.26,0,0,1-4.87-3.59c-.56-.47-.86-1.39.46-1.82,9.78-3.16,19.6-6.24,28.47-11.61,6.67-4,13.3-8.13,19.94-12.21a6.46,6.46,0,0,0,3.17-7.69c-.48-1.91-1-3.82-1.58-6.1-3.42,2.42-6.1,4.87-7.51,8.53a7.63,7.63,0,0,1-7.87,5.13,5,5,0,0,1-5.08-5.49,34.71,34.71,0,0,1,1.07-4.71A34.1,34.1,0,0,0,34,76.08c.15-2.65-1.23-3.64-3.81-3C28.93,73.36,27.71,73.79,26.29,74.21Zm38.8,1.08c-.29-1.57-.56-3.61-1.06-5.59-.74-2.89-1.6-5.74-2.49-8.58-.35-1.12-1.2-1.92-2.42-1.34-1.45.69-3.26,1.08-3.68,3,0,.15.13.34.17.52.42,2,.94,3.94,1.24,5.93a11.4,11.4,0,0,0,5.44,8.07C64,78.44,65,77.72,65.09,75.29Zm-15.8-9.76c-3.18,1.19-6.1,2.24-9,3.37a5.88,5.88,0,0,0-1.88,1.19c-.78.74-.76,1.64.25,2.15C41.91,73.87,45.33,74.83,49,74a3.17,3.17,0,0,0,1.93-2.13A8.34,8.34,0,0,0,49.29,65.53Z"/><path d="M302.21,60.05c5.74-2.12,8.87-9.8,8.4-14.4-2.41.74-4.86,1.53-7.34,2.22a6,6,0,0,1-2.24.06c-.61-.06-1.69-.27-1.72-.52a5.53,5.53,0,0,1,.33-2.61c.2-.52.85-.9,1.37-1.23,8.43-5.48,16.93-10.84,25.26-16.46C329.44,25,332.8,25.27,336,26a20.63,20.63,0,0,1,7.35,3.89c3.21,2.41,2.89,6-.55,8.15a33.69,33.69,0,0,0-13.05,14.76c-1.26,2.7-2.55,5.4-3.67,8.17a7.69,7.69,0,0,0-.48,3.3c.17,2.69-1.45,4.06-3.45,5.29s-3.6,2.47-5.5,3.52c-2.91,1.59-3.58,4.31-3.93,7.22-.48,4-.23,4.19,3.67,3.93a6.5,6.5,0,0,1,7.09,5.16,4.46,4.46,0,0,1-.75,3.26,23.37,23.37,0,0,1-4.28,4.15,11.82,11.82,0,0,0-4.58,8.86c-.14,1.52.81,1.88,1.95,1.83,1.55-.07,3.09-.4,4.65-.52,3.16-.25,6.32-.6,9.48-.57a6.07,6.07,0,0,1,3.36,1.59c2.19,1.8,4.21,3.81,6.56,6a3.2,3.2,0,0,1-2.81,2.5,15,15,0,0,1-3.9.3,59.73,59.73,0,0,0-19.81,2.12,55.69,55.69,0,0,1-9,1.32,4.05,4.05,0,0,1-4.41-3.06,6.33,6.33,0,0,0-.89-1.85c-3.29-4.36-1.29-5,.4-8.34a25,25,0,0,0,1.78-3.87,4.8,4.8,0,0,0-1.84-5.47c-2.56-2.06-2.55-3.7.2-5.38a3.83,3.83,0,0,0,2.05-3.41c.14-2.4.46-4.79.64-7.19a1.83,1.83,0,0,0-.42-1.2c-2.08-2.42-1.25-5-.48-7.59.67-2.24,1.39-4.48,1.88-6.76.14-.65-.46-1.45-.72-2.17L302,64c-.67,1.7-1.3,3.41-2,5.09-1.06,2.5-2.76,2.78-4.24.56-1.77-2.64-3.82-5.25-4.81-8.19-.88-2.6-.5-5.63-.65-8.48-.14-2.67-.3-5.34-.35-8a4.09,4.09,0,0,1,.54-2.59,2.38,2.38,0,0,1,2.34.17,44.7,44.7,0,0,1,7.83,12.65C301.22,56.75,301.66,58.35,302.21,60.05Zm12.91-3.82.61.37c.7-.79,1.86-1.49,2-2.38.95-5.27,3.54-9.82,5.92-14.49a13.29,13.29,0,0,0,.75-2.7l-.45-.46a11,11,0,0,0-2.85.87c-2,1.27-3.9,2.69-5.77,4.14-1,.79-1.59,1.92-.72,3.11,1.83,2.47,1.54,5.11.94,7.86A34.56,34.56,0,0,0,315.12,56.23Z"/><path d="M507,87.63a16.49,16.49,0,0,0-2.84,1.45c-3,2.28-6,4.54-8.76,7a10.28,10.28,0,0,1-13,.07,52.45,52.45,0,0,0-8.29-5.4c-1.15-.67-2.14-1.37-1.67-2.66a3.61,3.61,0,0,1,2.13-1.72c3.67-1.19,7.44-2.09,11.09-3.34a104.09,104.09,0,0,0,23.5-11.85c2.08-1.37,2.89-3.16,3.26-5.68A97.41,97.41,0,0,0,512.19,34a12.84,12.84,0,0,0-.67-2.91c-1.43-3.23-.56-6.35.26-9.51.26-1,.83-1.54,1.7-1.16,2.36,1.05,4.89,1.95,6.9,3.49a82.38,82.38,0,0,1,8.23,7.64c2,2.08,2.95,4.49,1.64,7.5a21.46,21.46,0,0,0-1,4.93c-.63,3.69-1.24,7.38-1.86,11.08a4.76,4.76,0,0,0-.14.92c0,1.49-.78,3.47,1.07,4.13.82.3,2.26-.75,3.25-1.43,2.42-1.66,4.72-3.49,7.13-5.16a4.46,4.46,0,0,1,2.21-.72c1.92-.12,3.84-.08,5.76-.1h.19c1.7,0,4.92,2.94,5.24,4.63a1.42,1.42,0,0,1-1,1.87c-2.67,1.2-5.23,2.67-7.94,3.77-5.4,2.19-9.57,6.34-14.62,9a10.14,10.14,0,0,0-5.5,7.27c-1.49,6.92-5,13-7.83,19.39-3.9,8.73-10.52,14.32-19.33,17.69-5,1.9-9.93,3.79-15.39,3.43-1.86-.13-3.73-.36-5.58-.64a4.72,4.72,0,0,1-1.37-.71c.38-.43.67-1,1.14-1.25,2.64-1.27,5.37-2.34,8-3.69,7.5-3.9,14.37-8.67,19.33-15.65,2.13-3,3.72-6.4,5.56-9.62Z"/><path d="M191.36,35.14c1.31-1.45,1.13-3,.78-4.5-.43-1.92-1-3.82-1.29-5.76-.27-1.63.26-1.95,1.86-1.56,2.1.51,3.45,1.64,3.72,3.89a4.14,4.14,0,0,0,.55,1.58c.6,1,1.2,1.27,2.38.42,2-1.47,2.68-3.49,3-5.74.4-2.46.77-4.93,1.15-7.4.32-2.07,1.79-2.93,3.71-2.18,4,1.56,5.93,6.55,4.72,10.78a19.24,19.24,0,0,1-6.46,9.59c-1.33,1.12-2.46,2.48-3.68,3.73-1.89,2-2.42,4.48-2.73,7-.2,1.75,1.14,2.75,2.87,2.33,2.05-.49,6.48,1.39,7.47,3.27a3.06,3.06,0,0,1,.33,2c-.89,3.18-2.07,6.15-5.72,7.22-2.27.67-2.68,1.84-1.72,4,.58,1.3,1.14,2.62,1.59,4A9.54,9.54,0,0,1,202.85,76c-1.64,2.72-3.3,5.44-4.95,8.16a3.65,3.65,0,0,0-.62,1.14c-.13.87-.12,1.75-.17,2.63.93-.09,2,.11,2.75-.32,1.59-.92,2.79-2.19,2.57-4.38a25.81,25.81,0,0,1,.27-4.33c2.69.13,5,.28,7.37.35s4.54.77,5.16,3-.77,4-2.55,5.45c-1.55,1.24-3,2.58-4.52,3.89a15.7,15.7,0,0,1-7.52,3.54,15.85,15.85,0,0,0-4.8,1.46c-1.33.76-2.89,2-3.32,3.3-1.77,5.48-5.59,9.37-9.58,13.14a7.55,7.55,0,0,1-3.65,1.62,3.08,3.08,0,0,1-2.32-1c-.26-.28.13-1.47.52-2,1.92-2.74,4.49-5,5.19-8.55.42-2.13-.1-3.59-2.16-4.21a10.6,10.6,0,0,0-2.58-.4c-2.17-.07-2.91-.91-2.82-3.31.06-1.38,1.44-2.28,3.22-2.26a8.27,8.27,0,0,0,6.43-2.49,3.82,3.82,0,0,0,1-4.32,5.1,5.1,0,0,0-2.67-2c-1.24-.48-2.23.05-2.78,1.45a5.34,5.34,0,0,1-8,2.49,11.07,11.07,0,0,1-2.24-2c-1.95-2.3-2-4.72.05-6.9a18.21,18.21,0,0,0,5.46-11.58,10.71,10.71,0,0,1,1.19-4.31c1-1.85.44-3.33-.45-4.89a2.35,2.35,0,0,0-2.8-1.3c-3.57.74-5.88-1.45-8.07-3.71-1-1.08-.22-2,.71-2.6a9.73,9.73,0,0,1,2.78-1.05,27.32,27.32,0,0,0,12.25-6.55,5.19,5.19,0,0,0,1.63-2.63c.52-2.49.76-5,1.1-7.56a5.4,5.4,0,0,1,.2-1.48c.41-.93,1-2.54,1.45-2.53a4.5,4.5,0,0,1,3,1.48A33.16,33.16,0,0,1,191.36,35.14ZM178,55.1c2.86,1.36,5.22,2.39,7.81,2a3.35,3.35,0,0,0,2.28-1.76c.66-1.66-.4-3.06-1.67-4-.72-.52-2.13-1-2.74-.59A60.17,60.17,0,0,0,178,55.1Zm6.17,12.73c.19,1.47.19,2.87,1.74,2.42A26.41,26.41,0,0,0,191.18,68a2.21,2.21,0,0,0,.57-1.94c-.11-.52-1-1.32-1.36-1.25a25.31,25.31,0,0,0-5.14,1.44C184.68,66.47,184.42,67.47,184.2,67.83Zm-2.49,11.44c3.84-.18,6.38-1.91,7.26-5.14l-7.26,2.64Z"/><path d="M438,85.51c.07,2.4-1.22,3.84-3.59,4.44A63.79,63.79,0,0,0,427.86,92c-5,1.84-10,3.83-15.06,5.65-9.56,3.43-18,8.78-26.17,14.73-.95.69-2.06,1.17-3,1.85-2.47,1.73-4.84.85-6.93-.54a32.94,32.94,0,0,1-5.2-4.54,5.74,5.74,0,0,1-1.38-2.8c-.52-2.53-.08-3.11,2.39-3.89,6.25-2,12.52-3.85,18.73-5.92a7.27,7.27,0,0,0,3.23-2.29Q405.81,79.76,417,65.07A12,12,0,0,0,418.24,62a14.36,14.36,0,0,0-3.19.69c-3.39,1.59-6.78,3.2-10,5-3.68,2.08-7.27,2.42-10.58-.39a34.47,34.47,0,0,1-5.8-6.21c-1.46-2-.72-3.12,1.81-3.44a4.73,4.73,0,0,1,1.3,0c7.89,1.31,15.51.69,22.84-2.77a11.13,11.13,0,0,1,7.67-.82c3.61.93,7.3,1.65,10.84,2.8,2.42.79,2.76,2.34,1.14,4.35a23.83,23.83,0,0,1-4,3.86c-7.21,5.51-12.4,12.77-17.49,20.11a3.3,3.3,0,0,0-.65,1.33,2.56,2.56,0,0,0,.21,1.66c.18.24,1,.22,1.46,0,4.3-2,8.62-3.92,12.82-6.1,2.31-1.19,4.52-1.72,7-.82a9,9,0,0,0,1.26.34C437.59,82.27,438,82.71,438,85.51Z"/><path d="M271.09,91.2c-1,.56-2.1,1-3.08,1.68a5,5,0,0,1-6.41-.21,27.37,27.37,0,0,1-3.27-3,1.66,1.66,0,0,1,.39-2.61c1-.77,2.2-1.41,3.29-2.12,2.82-1.83,5.74-3.54,8.4-5.58a5.49,5.49,0,0,0,1.73-3.46c.51-5,.77-10,1.11-15,0-.59,0-1.2,0-2.38-1.76,1.17-3.33,1.88-4.45,3-3.54,3.58-7.27,3.26-11.23,1-1.24-.72-2.52-1.39-3.72-2.16-1.81-1.17-2-3.81,0-4.55,6.65-2.55,12.41-6.67,18.48-10.23,3.49-2,6.77-.79,9.68,1,5.09,3,4.87,3.45,3.08,9.09a119.2,119.2,0,0,0-3.7,14.87c-.38,2.06-.67,4.62,1.76,6.24,1.12.74.53,1.82.05,2.84-.9,1.9-1.66,3.87-2.44,5.82a3.58,3.58,0,0,0,0,1.16c1.61-1.92,3.18-3.58,4.49-5.43,1.13-1.59,2.37-1.81,4.36-.74-.89,1.9-1.83,3.81-2.68,5.77-2.12,4.9-4.46,9.74-6.19,14.79a49,49,0,0,0-1.78,10.09c-.44,3.84-2.95,6.28-6.84,6.17-2.61-.08-5.23-.23-7.84-.4a6.63,6.63,0,0,1-2-.51c-1.35-.57-2-1.41-1.06-2.91,2.44-3.92,5.08-7.75,7.13-11.86,1.56-3.12,2.35-6.62,3.48-10Z"/><path d="M161.35,67.81c-1.31,3.64-2.36,7.51-4.07,11.07S155,86,154.19,89.6c-1.33,6-3.08,11.82-4.34,17.79-.87,4.12-1.13,8.37-1.82,12.54a19.63,19.63,0,0,1-1.51,5.35c-1.79,3.73-6,4.2-8.69,1.07a37.74,37.74,0,0,1-2.65-3.62c-2.2-3.29-1.61-6.61.16-9.81a37.68,37.68,0,0,0,4.09-14.07c.55-4.58,1.24-9.15,1.91-13.72a9,9,0,0,1,.59-2c2.8-6.86,4.23-13.92,3.19-21.35a6.83,6.83,0,0,1,0-1.69,2.27,2.27,0,0,1,3.25-1.92A10.06,10.06,0,0,1,153.21,63a46.45,46.45,0,0,1,2.06,4.19c.57,1.27,1.36,1.62,2.46.69S159.78,66.65,161.35,67.81Z"/><path d="M546.16,116.6c-1.25-.71-2.84-1.22-3.86-2.27a23.37,23.37,0,0,1-4.26-5.61c-4.23-8.34-8.25-16.79-12.33-25.2a5.49,5.49,0,0,1-.47-1.22c-.46-2.24,1.2-3.93,3.23-3a12.14,12.14,0,0,1,3.89,2.92C537,87.12,541,92.78,546.24,97c5.77,4.72,13.18,6.27,20.63,6.94a13.15,13.15,0,0,1,3.44,1.37,15.63,15.63,0,0,1-2.66,2.88,24.35,24.35,0,0,1-4.3,1.79q-6.87,2.73-13.73,5.43C548.59,115.86,547.51,116.16,546.16,116.6Z"/><path d="M39.06,52.41c-2.12-.67-4.68-1.43-7.2-2.32a34.34,34.34,0,0,1-4.43-2c-.45-.23-1-.91-1-1.31a2.17,2.17,0,0,1,1.09-1.45c2.4-1,4.83-2,7.3-2.82C39,41.12,43.22,39.7,46.79,37c1-.78,1.7-1.76,3.37-1.3,3.16.89,5,2.27,5.17,5.51a5.29,5.29,0,0,1-1.92,4.13c-4.1,2.53-8.48,4.63-12.76,6.87A6.84,6.84,0,0,1,39.06,52.41Z"/><path d="M197.88,97.79c2.83.95,5.28,1.76,7.72,2.61a1.44,1.44,0,0,1,.63.66c2.1,3.59,4.14,7.22,6.28,10.79,1.19,2-1.37,7.34-3.18,7.94a3.51,3.51,0,0,1-2,0c-3.82-1.16-7.61-.78-11.4.1a4.71,4.71,0,0,1-1.51-.17c.1-.51,0-1.18.31-1.5a13.66,13.66,0,0,1,3.28-3c3-1.57,3.87-6.58,2.51-9.27a58.78,58.78,0,0,1-2.5-6.39A9.27,9.27,0,0,1,197.88,97.79Z"/><path d="M146.53,48.73c-.51-1.47-1.45-2.95-1.42-4.42a54.61,54.61,0,0,1,.94-10.38,44.9,44.9,0,0,0,1.24-13.51c-.14-1.51-.16-3.6,1.41-3.8,1.26-.16,2.73,1.32,4.08,2.11a1.21,1.21,0,0,1,.4.63c1,2.79,2.18,5.54,3,8.39a10,10,0,0,1-1.35,7.9c-2.07,3.53-4,7.15-6,10.73-.44.79-.92,1.55-1.39,2.33Z"/><path d="M88.82,24.86A6.25,6.25,0,0,1,94,27.09c2.27,2.59,4.59,5.13,4.6,8.89,0,4.19-5.59,9.26-9.79,8.84-1.44-.15-2.37-.82-2.26-2.38a17.54,17.54,0,0,1,.5-4.25,7.66,7.66,0,0,0-.85-6.42c-.59-1-1.15-2.07-1.71-3.11-1-1.93-.59-2.9,1.6-3.4C87,25.05,87.9,25,88.82,24.86Z"/><path d="M29.08,96.54c-.86,1.22-1.39,2.46-2.32,3.18a14.65,14.65,0,0,1-3.85,1.82c-1.62.61-3.3,1.06-4.95,1.61-2.21.74-3.69-.33-3.33-2.65A12.11,12.11,0,0,1,16,96.89c1.51-2.91,3.09-5.79,4.7-8.64.52-.92,1.15-2.36,1.87-2.46,1.47-.2,1.73,1.43,2.27,2.55s1.42,2.32,2,3.53C27.63,93.31,28.27,94.81,29.08,96.54Z"/><path class="cls-1" d="M642.28,29.33c2.47.44,2.76,2.38,3.41,4.11.58,1.53-.55,2.31-1.23,3.26a1.46,1.46,0,0,1-1.4.13c-.73-.77-1.78-1.7-1.78-2.58A22.17,22.17,0,0,1,642.28,29.33Z"/><path class="cls-1" d="M65.09,75.29c0,2.43-1.14,3.15-2.8,2.06a11.4,11.4,0,0,1-5.44-8.07c-.3-2-.82-4-1.24-5.93,0-.18-.2-.37-.17-.52.42-2,2.23-2.36,3.68-3,1.22-.58,2.07.22,2.42,1.34C62.43,64,63.29,66.81,64,69.7,64.53,71.68,64.8,73.72,65.09,75.29Z"/><path class="cls-1" d="M49.29,65.53a8.34,8.34,0,0,1,1.59,6.37A3.17,3.17,0,0,1,49,74c-3.62.8-7-.16-10.27-1.79-1-.51-1-1.41-.25-2.15a5.88,5.88,0,0,1,1.88-1.19C43.19,67.77,46.11,66.72,49.29,65.53Z"/><path class="cls-1" d="M315.12,56.23a34.56,34.56,0,0,1,.45-3.68c.6-2.75.89-5.39-.94-7.86-.87-1.19-.28-2.32.72-3.11,1.87-1.45,3.78-2.87,5.77-4.14a11,11,0,0,1,2.85-.87l.45.46a13.29,13.29,0,0,1-.75,2.7c-2.38,4.67-5,9.22-5.92,14.49-.16.89-1.32,1.59-2,2.38Z"/><path class="cls-1" d="M178,55.1a60.17,60.17,0,0,1,5.68-4.31c.61-.36,2,.07,2.74.59,1.27.92,2.33,2.32,1.67,4a3.35,3.35,0,0,1-2.28,1.76C183.25,57.49,180.89,56.46,178,55.1Z"/><path class="cls-1" d="M184.2,67.83c.22-.36.48-1.36,1.05-1.59a25.31,25.31,0,0,1,5.14-1.44c.39-.07,1.25.73,1.36,1.25a2.21,2.21,0,0,1-.57,1.94,26.41,26.41,0,0,1-5.24,2.26C184.39,70.7,184.39,69.3,184.2,67.83Z"/><path class="cls-1" d="M181.71,79.27v-2.5L189,74.13C188.09,77.36,185.55,79.09,181.71,79.27Z"/></svg>